<svg width="608" height="590" viewBox="0 0 608 590" fill="none"
  xmlns="http://www.w3.org/2000/svg">
  <path d="M180.696 479.662C174.827 479.662 157.866 479.544 159.125 470.642C155.175 468.696 151.511 468.037 147.803 468.82C145.934 469.224 146.084 471.151 143.193 470.443C142.351 470.231 139.454 467.042 138.251 466.396C136.108 465.252 134.843 465.494 132.999 464.127C131.871 463.294 128.737 460.316 127.484 459.153C123.609 455.504 124.73 454.503 118.911 452.881C114.157 451.551 113.565 448.349 109.228 446.975C107.826 446.528 106.337 448.082 104.511 447.529C103.159 447.124 102.131 444.607 99.0341 444.302C94.7909 443.886 90.6598 446.242 86.2608 444.837C82.3976 443.593 77.6808 441.219 73.6245 439.086C72.5652 438.539 71.5433 436.656 70.0479 436.239C67.973 435.655 66.1536 437.01 64.2345 436.681C60.4399 436.059 56.7574 432.727 53.9971 430.259C51.8225 428.319 49.2242 423.968 45.2925 424.987C41.0368 426.075 42.177 430.8 41.9839 434.555C37.2796 434.71 33.0488 431.888 28.7121 430.955C28.0017 435.723 29.5345 440.28 29.709 444.818C29.9645 451.408 28.9987 453.776 36.1829 455.672C38.4759 456.294 40.2517 456.114 42.0649 457.152C43.6164 458.041 44.2519 460.366 46.3642 461.466C50.0592 463.381 54.9504 463.418 59.175 463.66C59.7358 466.961 57.1998 469.255 57.5674 472.612C53.7292 472.96 50.0903 478.319 46.9749 480.29C46.8378 482.335 46.925 484.492 46.7879 486.506C44.576 487.656 45.1056 490.746 43.7909 493.046C42.6132 495.11 40.5882 495.241 39.8031 497.758C37.7059 497.776 35.6167 498.019 33.5722 498.486C29.0921 505.324 40.2829 505.84 33.622 512.983C27.7899 519.199 25.7212 520.598 32.8681 526.895C30.9988 533.603 23.0045 532.347 24.4252 540.652C27.6403 540.746 32.0643 542.747 34.6563 540.802C42.096 544.096 39.2111 549.642 39.3856 555.721C39.5289 560.782 42.5945 567.533 48.9501 566.389C51.9845 561.416 49.0435 559.886 56.0408 559.47C60.4585 559.209 65.1317 558.631 69.4996 558.91C73.6865 559.218 77.8012 560.166 81.6997 561.72C84.0675 562.727 89.9557 567.166 91.0461 562.23C96.143 563.02 95.5635 561.869 98.4733 558.917C100.343 557.052 103.277 554.994 105.028 553.129C107.764 552.675 112.294 554.807 114.63 553.601C117.291 552.234 117.035 548.286 118.786 545.924C121.97 541.628 131.173 539.515 131.248 535.356C131.323 531.713 127.734 531.508 127.073 528.269C126.176 523.88 129.678 524.085 131.435 521.033C133.242 517.875 131.971 515.438 135.173 512.429C137.429 510.303 142.445 509.259 142.651 505.423C150.128 504.69 148.551 500.22 152.776 497.304C157.412 494.103 165.599 496.745 170.958 493.991C170.901 493.369 170.82 492.903 170.708 492.319C175.506 490.914 182.316 484.896 182.229 479.705C180.528 478.518 181.868 478.406 180.696 479.662Z" fill="#F2F3F2"/>
  <path d="M256.969 501.103C256.676 499.673 256.969 497.783 257.063 496.372C260.571 495.265 261.293 481.092 260.645 477.598C254.514 476.243 254.576 482.055 249.536 482.969C249.112 489.484 245.498 498.908 251.149 503.689C252.687 504.003 254.272 504.003 255.81 503.689C256.757 501.675 257.524 503.813 256.969 501.103Z" fill="#F2F3F2"/>
  <path d="M30.6623 452.458C33.4413 450.376 37.0801 452.999 40.2766 453.701C49.2865 455.666 55.8539 461.422 55.9722 460.919C57.0315 460.67 58.9693 462.871 60.0286 463.008C61.0442 465.215 62.1658 467.552 60.8573 469.56C59.1625 472.171 59.6111 469.92 59.4865 473.681C55.9535 475.167 51.2181 479.506 49.6105 482.385C47.5169 486.115 48.8503 488.234 46.2022 491.89C43.9715 494.967 42.8063 498.504 40.8872 501.799C39.5413 504.111 39.0179 503.167 38.8933 506.088C38.8185 508.42 41.3857 509.128 40.4261 511.876C39.9775 513.194 37.3107 513.685 36.4383 514.922C35.1921 516.787 34.9554 518.26 34.7809 520.43C34.6625 521.866 35.7592 525.44 35.4663 526.298C34.6314 528.723 31.9521 529.233 30.4816 531.029C25.8894 536.717 25.4595 547.913 14.1628 541.765C12.2624 540.727 11.2717 538.576 9.17809 537.699C7.35243 536.935 3.26495 537.799 1.99384 536.375C-0.218129 533.889 4.38652 526.249 4.91614 523.109C5.67631 518.571 7.35866 515.208 4.77906 511.466C2.00008 507.425 -2.63572 505.927 1.89415 501.668C5.30246 498.467 10.4679 497.851 13.9011 494.022C16.5192 490.891 18.7707 487.473 20.6118 483.833C24.7242 475.882 27.5967 468.497 27.4658 460.366C27.416 456.704 28.1886 454.311 30.6623 452.458Z" fill="#F2F3F2"/>
  <path d="M149.635 535.163C151.392 534.181 152.308 531.893 150.196 530.606C149.224 531.676 147.374 531.701 145.542 531.539C145.33 535.654 144.788 541.827 150.477 538.315C150.377 537.339 151.019 535.611 151.019 535.163H149.635Z" fill="#F2F3F2"/>
  <path d="M174.609 522.705C177.942 524.638 176.478 526.852 175.924 529.543C173.855 529.425 173.194 530.787 173.599 532.763C171.799 534.386 165.686 535.636 166.353 531.52C166.77 531.309 167.213 531.203 167.599 530.992C166.739 527.554 162.839 524.154 167.069 521.636C169.724 520.069 174.939 521.362 176.416 524.054L174.609 522.705Z" fill="#F2F3F2"/>
  <path d="M250.919 510.707C249.673 510.968 247.454 512.1 245.834 512.087C243.654 512.087 242.22 510.757 239.89 511.236C239.186 514.157 241.604 517.452 242.158 520.417C242.588 522.705 243.404 526.783 242.981 529.556C237.934 534.013 241.734 550.387 249.916 548C250.969 545.352 250.196 542.188 250.987 539.384C254.639 538.937 260.259 540.963 260.172 534.703C260.134 532.465 258.302 531.477 257.941 529.288C257.841 528.667 258.683 524.384 258.876 523.258C259.293 520.772 259.866 521.474 259.58 518.646C259.424 517.079 259.169 514.655 259.144 512.908C259.088 509.134 257.48 504.826 252.389 505.69C251.349 507.344 251.106 509.134 250.919 510.707Z" fill="#F2F3F2"/>
  <path d="M336.469 556.853C333.503 556.585 330.581 557.356 327.684 557.773C323.64 558.351 323.472 559.681 320.207 561.372C318.337 562.336 312.237 563.859 310.125 563.305C307.34 562.591 306.062 558.624 302.797 559.227C303.028 560.266 302.424 561.714 302.654 562.777C297.906 563.019 292.685 562.23 293.931 568.844C295.42 576.615 301.283 571.729 306.455 574.017C308.673 574.993 309.352 577.199 311.116 578.53C313.515 580.333 318.911 582.577 321.222 583.59C322.88 584.311 325.247 586.419 327.696 584.212C329.522 582.564 329.565 578.356 328.101 576.69C329.883 574.464 330.27 570.106 330.064 567.079C331.597 566.37 332.425 565.257 333.628 564.151C333.809 561.353 336.8 559.787 336.469 556.853Z" fill="#F2F3F2"/>
  <path d="M116.325 355.654C119.148 355.654 124.207 359.844 124.263 355.735C125.591 355.468 126.96 355.468 128.288 355.735C127.709 359.465 129.615 361.33 132.65 362.461C135.466 363.512 139.896 363.518 142.283 363.841C146.582 364.426 149.255 362.654 146.919 357.382C145.916 355.132 143.728 354.386 143.18 351.962C142.937 350.93 143.803 348.729 143.735 347.405C145.648 348.207 148.987 348.71 150.477 350.233C152.302 352.098 151.723 354.162 153.723 356.164C158.284 360.764 163.885 356.201 167.25 354.175C169.599 352.77 171.668 350.606 173.724 349.643C175.637 348.754 179.388 348.754 181.556 348.281C185.5 347.423 189.769 346.416 189.937 341.822C190.024 339.528 187.519 337.44 187.775 334.984C191.476 334.791 194.76 334.313 197.676 336.75C200.903 339.441 200.168 343.979 202.841 346.907C204.972 349.232 208.299 349.661 210.723 351.526C211.845 352.384 211.969 353.652 213.49 354.405C215.01 355.157 216.873 354.243 218.238 355.076C221.154 356.854 221.172 359.919 224.624 361.672C225.958 362.349 227.74 362.237 228.88 362.946C230.301 363.835 230.575 365.433 231.996 366.297C233.678 367.304 236.164 367.037 237.94 368.249C239.03 369.001 239.074 370.655 240.345 371.357C243.585 373.166 247.479 371.575 250.938 372.824C251.922 378.637 247.479 381.005 245.56 385.661C243.822 389.882 243.865 394.638 241.199 398.505C236.594 399.394 233.348 402.365 231.117 406.418C229.578 409.216 229.777 410.111 227.378 412.069C225.466 413.648 222.892 414.593 223.297 417.422C225.846 419.405 228.213 417.49 230.27 418.497C232.656 419.666 233.921 423.812 233.871 426.268C233.871 427.511 232.625 428.207 232.432 429.612C232.239 431.26 233.846 431.104 233.385 432.721C232.955 434.25 229.185 435.978 228.855 437.893C228.413 440.479 230.182 441.84 230.176 444.159C230.176 446.702 228.531 447.889 229.815 451.159C231.715 456.027 236.937 456.567 238.42 461.261C236.096 461.621 233.117 461.317 230.943 462.144C228.612 463.039 226.924 465.874 224.568 466.881C220.674 468.584 213.639 469.162 209.876 467.695C204.823 465.633 199.658 463.856 194.404 462.374C186.273 460.254 185.476 463.81 180.696 468.795C181.257 475.752 176.447 482.428 168.951 480.812C162.409 479.407 158.359 470.088 151.019 471.027C147.61 471.462 145.629 474.005 142.115 472.544C139.46 471.444 136.544 468.248 134.014 466.769C130.687 464.823 119.852 459.458 119.683 455.411C122.643 454.168 122.593 450.811 124.344 448.529C125.709 446.751 128.5 444.607 130.158 443.258C130.246 440.541 130.864 437.868 131.977 435.388C133.13 432.801 135.715 431.794 135.821 429.469C135.859 428.786 133.609 427.934 133.466 426.74C133.285 425.186 134.569 424.005 134.849 422.575C135.429 419.598 134.476 415.047 138.956 415.582C139.529 412.685 141.703 410.851 141.778 407.78C141.884 403.366 140.196 404.137 136.251 402.732C129.846 400.457 129.821 397.535 130.7 391.194C131.678 384.151 126.961 380.626 120.992 377.816C119.472 377.101 118.026 377.052 116.817 375.951C115.453 374.708 115.945 372.93 114.038 371.55C111.49 369.685 107.901 370.487 104.848 370.307C107.384 365.035 108.81 360.534 104.386 356.158C107.826 355.335 111.367 355.019 114.898 355.219C115.135 356.947 114.343 355.642 116.325 355.654Z" fill="#F2F3F2"/>
  <path d="M145.934 290.486C147.336 284.736 148.663 278.482 151.206 273.08C152.364 270.593 153.523 270.717 151.754 268.106C150.377 266.067 148.134 265.657 148.607 262.791C148.719 262.095 151.505 260.441 152.346 259.789C154.651 257.998 157.617 256.78 160.103 255.263C161.73 254.275 164.116 253.398 165.088 251.415C166.01 249.55 165.68 247.959 167.144 246.237C169.637 247.865 168.191 253.218 168.459 255.91C168.908 260.373 171.749 262.81 176.061 264.613C175.637 265.856 174.322 267.099 174.403 268.424C174.497 270.009 176.615 272.098 176.802 274.217C176.989 276.337 176.329 278.339 176.441 280.434C176.528 282.1 177.276 282.802 177.5 284.207C178.011 287.477 177.674 291.879 177.5 294.968C177.363 297.293 175.381 296.64 178.123 298.151C180.615 299.537 180.996 297.859 183.139 297.119C187.42 295.652 187.557 298.182 189.37 302.155C191.002 305.71 190.99 308.371 187.98 311.604C185.602 314.008 182.924 316.098 180.011 317.82C178.179 318.871 177.431 317.907 176.783 320.307C176.192 322.483 177.114 323.894 179.22 324.037C179.742 324.037 180.25 323.87 180.67 323.561C181.09 323.253 181.401 322.818 181.556 322.321C184.703 326.828 181.344 329.837 177.139 330.266C174.322 330.558 173.886 331.08 171.475 331.919C169.605 332.541 169.481 332.69 167.437 331.988C164.191 330.881 161.798 328.258 158.06 328.165C155.181 328.095 152.304 328.358 149.486 328.948C146.221 329.775 143.847 332.348 140.04 331.316C136.021 330.222 138.42 324.366 134.476 325.721C132.282 326.486 129.746 330.365 128.319 332.081C125.759 335.189 124.886 334.698 121.659 332.659C118.331 330.564 116.312 330.235 112.699 331.372C111.191 331.845 105.589 334.269 106.785 329.632C107.346 327.456 111.982 326.188 113.727 325.162C116.879 323.297 116.967 319.841 119.553 318.032C122.332 316.08 127.217 317.366 130.039 318.063C133.435 318.889 135.117 319.306 138.638 317.192C140.376 316.136 144.077 314.053 144.551 311.927C145.068 309.59 142.981 308.688 142.426 306.786C142.065 305.543 142.364 303.162 142.47 301.862C142.707 298.854 143.573 299.662 144.825 297.026C145.666 295.316 145.486 292.32 145.934 290.486Z" fill="#F2F3F2"/>
  <path d="M124.774 251.036C125.684 243.7 118.587 241.176 113.241 244.03C112.262 244.546 111.957 245.379 110.904 245.851C109.558 246.473 108.287 245.702 106.798 246.628C105.833 247.319 105.065 248.247 104.568 249.322C104.071 250.398 103.862 251.584 103.963 252.764C104.393 256.003 106.25 256.102 108.742 256.494C111.957 256.985 113.477 257.147 116.219 259.602C120.992 263.917 122.799 261.138 128.213 259.988C128.469 256.693 127.958 255.077 125.198 252.994C124.924 253.05 125.628 253.069 125.783 253.075C127.03 250.01 127.734 251.701 124.774 251.036Z" fill="#F2F3F2"/>
  <path d="M128.245 284.947C130.463 286.333 133.852 283.586 136.22 283.219C139.336 282.746 143.074 283.113 146.19 283.269C147.274 285.705 146.028 288.714 145.903 291.176C145.772 293.806 146.564 297.044 146.333 299.401C146.152 301.265 145.155 304.069 144.862 306.755C144.514 309.919 143.772 311.324 140.7 312.971C133.18 317.024 133.223 307.439 127.173 306.052C124.681 305.487 120.506 307.818 118.306 305.965C114.78 302.987 120.176 301.464 122.394 301.21C128.824 300.464 132.307 302.154 133.061 294.632C133.317 292.09 134.407 290.113 132.731 288.316C131.44 286.945 129.922 285.806 128.245 284.947Z" fill="#F2F3F2"/>
  <path d="M114.368 243.421C116.717 241.966 118.169 238.988 114.742 237.509C112.717 236.638 105.714 236.539 103.664 236.887C103.128 237.944 103.128 240.437 102.517 241.195C101.539 242.401 99.9874 241.686 99.1089 242.364C96.386 244.452 98.679 246.547 101.819 247.617C101.763 249.27 101.539 251.079 103.009 251.968C104.748 253.025 106.2 252.111 105.745 250.029C107.789 250.029 108.237 248.307 109.857 247.474C111.477 246.641 113.876 246.653 115.004 245.422C114.967 244.309 113.727 243.812 114.368 243.421Z" fill="#F2F3F2"/>
  <path d="M191.719 179.036C192.217 173.049 197.838 170.065 196.891 163.532C192.417 161.225 190.61 167.958 189.632 170.724C188.616 173.615 188.66 177.792 191.719 179.036Z" fill="#F2F3F2"/>
  <path d="M172.64 192.893C176.603 190.791 180.51 185.265 173.325 184.581C167.717 184.046 170.559 190.623 169.207 194.285C172.74 196.169 170.384 191.631 172.64 192.893Z" fill="#F2F3F2"/>
  <path d="M117.49 259.341C114.051 260.006 114.998 269.25 115.409 272.147C115.739 274.491 116.873 275.672 116.107 278.221C115.453 280.415 113.895 281.329 113.97 283.859C108.063 283.722 107.265 290.001 107.041 294.595C103.707 295.074 103.302 291.829 100.841 290.903C98.3798 289.976 96.685 291.767 94.6911 292.314C92.5789 292.879 90.3295 292.084 88.3418 292.482C85.8931 292.96 83.3571 295.037 80.7214 295.329C78.4096 295.49 76.1066 294.911 74.1478 293.675C72.8082 292.712 72.9515 292.146 72.0418 291.188C70.8517 289.945 70.2286 290.057 68.5462 289.044C63.9977 286.308 64.0164 278.569 70.2535 279.01C71.1134 277.002 71.1383 275.902 72.7459 274.572C73.369 274.056 74.5341 274.155 75.1759 273.621C75.8177 273.086 75.9735 271.936 76.6464 271.451C81.7558 267.721 79.5874 274.808 83.787 274.522C83.9304 271.979 84.3229 268.455 81.5128 267.292C83.3447 267.236 85.0831 267.777 86.9087 267.603C86.8402 265.154 83.0019 265.576 81.1202 265.52C81.4318 262.636 80.547 261.318 77.6558 260.323C75.9112 257.793 76.1417 255.878 79.3257 255.195C80.3974 254.965 82.2667 256.102 83.1577 255.549C85.1516 254.306 83.0643 254.355 82.8773 252.963C82.6904 251.57 82.3913 251.278 82.5222 250.072C82.41 251.141 84.0674 246.585 83.8431 246.908C85.9242 243.974 87.6938 245.211 90.6971 247.293C90.909 250.949 96.928 249.158 99.0777 248.661C101.433 250.949 104.411 252.149 107.315 253.895C109.726 255.325 115.895 256.929 117.49 259.341Z" fill="#F2F3F2"/>
  <path d="M170.559 199.171C169.936 195.305 162.938 194.67 160.153 193.781C158.583 193.278 155.623 191.618 153.922 191.861C150.919 192.29 150.807 196.106 149.399 198.699C146.906 203.243 143.168 202.715 142.115 208.024C141.267 212.425 142.052 209.994 138.999 211.872C137.335 212.891 135.697 213.37 137.934 215.999C134.818 217.771 132.201 220.177 135.186 223.459C137.466 225.946 139.915 223.148 141.828 224.976C140.47 226.381 134.17 229.11 136.17 231.193C135.597 237.042 141.965 233.536 143.13 236.427C138.943 238.565 135.915 240.039 142.364 242.693C141.46 242.849 137.236 244.975 136.893 246.119C136.114 248.73 139.46 249.849 139.012 252.304C138.632 254.349 135.815 254.654 135.18 256.911C134.338 259.919 135.865 256.494 137.952 257.402C139.703 258.16 141.236 257.638 142.8 257.657C144.918 257.657 147.965 262.704 150.115 262.306C153.523 261.685 158.352 253.902 161.212 258.657C162.608 257.719 161.879 257.831 162.571 256.898C163.262 255.966 164.59 255.176 165.362 254.138C167.387 251.415 167.231 250.029 165.53 247.3C163.661 244.272 162.621 244.515 159.2 244.223C156.826 244.024 154.446 244.415 154.664 240.443C159.511 239.274 162.477 237.335 166.702 233.928C170.64 230.714 176.503 225.66 178.827 220.687C181.151 215.713 175.163 211.666 170.727 211.455C165.998 211.219 160.259 214.377 155.704 213.32C156.95 211.399 157.461 208.515 157.711 206.134C157.491 206.031 157.242 206.007 157.006 206.065C161.991 206.115 166.303 205.214 170.185 201.005C170.353 200.315 170.658 199.793 170.559 199.171Z" fill="#F2F3F2"/>
  <path d="M140.731 194.279C141.84 193.9 145.523 191.686 144.47 189.772C143.785 188.528 139.547 188.957 138.276 189.088C134.488 189.467 130.855 192.389 128.737 195.665C127.559 197.493 128.394 198.736 127.883 200.856C127.484 202.509 124.768 204.828 125.086 206.656C125.79 210.616 127.821 205.618 128.488 204.306C129.466 202.379 130.706 200.576 131.024 198.407C131.034 198.324 131.069 198.245 131.123 198.181C131.177 198.117 131.249 198.07 131.329 198.046C133.441 197.424 135.74 196.119 137.666 195.733C140.065 195.255 138.326 195.093 140.731 194.279Z" fill="#F2F3F2"/>
  <path d="M139.691 203.28C139.329 201.254 134.027 201.384 132.058 203.28C129.31 205.922 132.588 207.601 135.379 209.136C135.485 207.203 138.264 206.469 138.357 203.871C138.36 203.781 138.394 203.695 138.455 203.629C138.516 203.563 138.598 203.521 138.688 203.51C139.028 203.461 139.363 203.384 139.691 203.28Z" fill="#F2F3F2"/>
  <path d="M138.65 239.958C136.538 240.667 134.687 242.096 132.457 241.904C132.612 239.883 134.226 238.46 132.457 236.595C134.014 235.296 135.292 234.164 136.226 232.349L138.65 239.958Z" fill="#F2F3F2"/>
  <path d="M135.211 228.538C132.631 227.015 125.983 230.254 129.541 233.822C128.756 234.519 127.871 235.861 129.728 235.83C131.933 235.793 130.974 234.438 132.002 233.375C133.285 232.026 135.292 228.899 135.211 228.538Z" fill="#F2F3F2"/>
  <path d="M138.675 265.551C138.052 266.726 134.208 264.047 134.195 262.17C137.734 261.548 139.117 260.367 138.65 265.9L138.675 265.551Z" fill="#F2F3F2"/>
  <path d="M135.529 278.718C134.12 277.363 130.363 277.68 132.301 280.185C134.712 283.312 135.516 279.955 135.529 278.718Z" fill="#F2F3F2"/>
  <path d="M441.504 162.09C443.086 155.425 443.529 154.723 448.252 149.619C454.003 143.403 461.112 128.421 452.956 121.396C449.479 118.393 443.311 120.028 440.744 116.423C438.251 112.935 441.516 109.491 436.176 106.681C439.292 104.108 432.095 98.3264 430.481 95.1125C436.251 92.6632 430.737 88.2743 430.481 84.6562C431.31 84.6562 432.22 84.5195 433.048 84.4511C434.874 76.8856 420.724 71.8004 420.057 63.9365C422.394 63.0973 426.817 60.0885 427.441 57.2848C428.612 51.9821 425.721 51.8826 422.699 48.7681C416.431 42.2718 408.125 35.4336 408.648 26.3202C408.929 21.3469 413.427 10.4493 402.772 15.5096C397.246 18.1392 399.121 26.5191 393.027 30.0066C392.043 33.3635 392.105 36.907 390.722 40.1706C385.88 39.8971 382.728 42.0356 378.341 42.3526C372.814 42.7754 370.864 38.9522 365.954 39.6857C364.882 46.9964 373.942 50.9999 376.796 56.3461C378.503 59.5476 379.07 62.5626 381.301 65.845C383.725 69.3946 387.32 73.0251 388.728 76.9415C390.79 82.6918 389.476 89.3249 394.435 94.1427C398.205 97.8105 399.377 93.521 401.233 99.9552C402.237 103.43 401.146 108.093 401.819 111.462C396.305 111.829 394.236 110.784 391.507 115.702C389.85 118.686 390.304 122.913 388.074 126.083C385.581 129.583 382.466 129.409 380.372 131.74C378.896 133.363 376.709 140.978 376.241 143.403C374.59 151.975 376.634 160.069 379.606 167.094C380.902 170.14 380.622 173.69 381.774 176.624C383.363 180.671 385.993 180.808 385.382 186.216C388.691 187.012 390.909 184.432 393.619 184.923C396.33 185.414 397.825 188.895 401.04 189.119C405.128 189.399 404.779 186.632 407.614 185.762C410.013 185.047 412.599 185.426 414.985 184.811C415.359 184.718 418.786 179.347 420.032 178.514C422.524 176.848 425.708 176.649 428.444 175.66C435.304 173.136 439.747 169.506 441.504 162.09Z" fill="#F2F3F2"/>
  <path d="M442.164 219.543C438.426 220.165 439.51 224.18 436.475 225.629C433.192 227.202 430.332 224.348 427.634 223.54C421.521 221.712 415.795 221.886 408.972 221.513C408.879 217.392 410.094 212.027 404.112 213.208C404.498 207.116 400.23 203.448 399.969 198.201C405.526 196.026 413.944 197.412 419.284 196.026C425.116 194.515 433.497 189.809 439.292 189.865C440.488 197.549 433.921 200.868 438.669 208.515C443.118 215.639 448.227 212.531 442.164 219.543Z" fill="#F2F3F2"/>
  <path d="M439.391 225.772C436.363 226.655 430.22 221.88 426.244 220.892C423.409 220.183 413.109 217.877 411.122 219.717C407.134 223.397 414.468 230.813 411.539 235.32C406.879 242.476 403.233 234.867 400.025 232.498C390.236 225.312 377.718 240.12 381.78 250.681C385.351 259.95 390.011 253.448 394.959 251.496C399.763 249.6 407.109 250.681 412.337 250.681C419.658 250.681 425.534 252.211 432.276 253.609C439.784 255.151 442.75 252.77 448.981 248.487C451.835 238.715 450.744 222.452 439.391 225.772Z" fill="#F2F3F2"/>
  <path d="M354.645 209.746C348.788 209.857 345.018 216.08 339.597 215.496C339.734 220.469 342.763 226.829 342.295 231.845C341.878 236.415 339.803 242.32 338.949 247.387C337.385 256.6 333.965 251.421 327.678 255.468C324.12 257.775 318.811 266.036 318.574 269.94C302.311 275.66 307.066 258.496 307.577 249.985C307.963 243.551 307.053 236.651 304.268 231.255C301.483 225.859 296.13 220.83 294.922 214.837C292.61 203.405 296.791 193.987 301.489 184.376C306.43 174.218 301.308 165.676 301.333 155.158C301.396 133.145 319.104 120.047 324.768 99.7873C326.188 94.6959 327.995 90.6116 329.603 85.7689C331.21 80.9263 330.544 74.9024 333.248 70.7C335.472 67.2374 339.84 64.583 342.096 60.853C344.7 56.545 345.672 52.4234 349.86 49.2778C354.358 45.896 361.387 39.5987 366.546 38.2683C374.397 45.7717 382.746 54.1019 385.862 63.9489C387.775 69.9913 389.183 74.461 388.622 80.2549C388.173 84.8551 386.572 90.823 385.189 95.5103C377.6 95.5103 376.653 95.1808 374.222 102.572C373.232 105.587 371.213 113.296 374.272 117.088C369.493 121.987 368.502 128.054 363.842 132.2C361 134.724 357.735 136.813 355.424 140.605C354.608 141.942 354.932 144.559 354.084 146.02C353.137 147.667 351.486 147.039 351.903 150.21C348.757 150.029 347.286 151.938 347.741 155.04C338.7 157.831 346.077 178.862 349.336 183.555C351.741 187.018 358.608 190.847 359.829 194.422C361.854 200.327 349.716 202.715 354.782 207.762C354.751 207.775 355.368 206.824 354.645 209.746Z" fill="#F2F3F2"/>
  <path d="M360.894 227.264C360.272 227.304 359.648 227.304 359.025 227.264C357.182 232.046 356.472 237.188 356.95 242.289C357.763 242.58 358.596 242.811 359.443 242.979C362.178 239.933 363.275 235.563 365.86 232.697C365.854 232.691 360.82 230.677 360.894 227.264Z" fill="#F2F3F2"/>
  <path d="M397.763 219.543C398.758 218.849 399.52 217.872 399.95 216.739C396.118 213.631 396.136 203.597 390.136 204.971C384.628 206.215 387.22 218.157 387.463 222.9C390.298 223.061 395.937 220.861 397.763 219.543Z" fill="#F2F3F2"/>
  <path d="M373.481 188.392C374.976 182.523 367.73 181.827 366.004 186.458C364.216 191.214 372.116 195.59 372.802 189.778L373.481 188.392Z" fill="#F2F3F2"/>
  <path d="M434.531 252.764C434.101 258.57 441.155 259.602 438.575 265.819C432.344 267.988 434.014 274.13 433.734 279.682C425.154 279.682 417.814 299.208 407.564 287.937C404.405 284.444 405.944 279.041 402.062 276.157C398.18 273.272 393.544 274.043 390.223 269.263C388.398 266.621 384.298 257.451 385.725 254.66C386.641 252.87 397.034 250.309 399.09 249.985C407.583 248.611 422.144 244.85 429.79 250.557C430.731 251.204 433.815 251.85 434.531 252.764Z" fill="#F2F3F2"/>
  <path d="M424.824 346.883C425.503 341.81 420.4 339.124 419.97 333.735C419.789 331.503 421.453 329.246 420.711 326.797C419.97 324.348 416.973 323.428 415.945 321.824C410.829 313.823 418.917 306.438 414.954 297.219C406.997 278.693 377.026 287.85 360.408 289.342C359.343 282.92 359.524 278.215 351.286 281.143C345.679 280.384 348.993 285.531 345.018 287.931C340.607 290.592 335.921 291.661 331.067 293.619C325.976 295.652 318.998 294.968 318.661 301.216C318.4 306.034 324.014 310.628 324.749 315.215C325.858 322.153 322.88 331.95 322.961 340.082C322.961 343.047 332.058 348.437 335.292 350.227C337.211 351.29 339.591 350.227 341.741 351.545C343.666 352.695 344.532 354.796 346.308 356.002C346.341 356.686 346.57 357.347 346.968 357.904C346.85 356.941 347.311 355.592 347.224 354.603C353.505 353.634 359.729 357.37 363.773 361.442C366.01 363.692 372.179 375.472 375.687 368.485C380.727 367.335 378.802 371.593 381.6 372.706C387.127 374.963 383.806 373.67 388.205 370.462C393.657 366.483 396.554 367.248 403.296 369.772C412.318 373.147 410.15 371.892 411.639 362.828C412.648 356.829 421.166 351.551 424.824 346.883Z" fill="#F2F3F2"/>
  <path d="M338.102 564.232C343.635 565.686 346.059 554.447 350.034 551.096C353.043 548.572 356.47 547.509 356.14 543.468C355.841 539.894 352.059 537.874 348.613 537.824C348.339 532.447 347.903 527.256 347.23 522.115C356.271 520.001 365.786 521.686 365.3 532.341C367.431 530.886 368.272 528.294 368.054 525.59C373.038 521.524 343.199 507.251 339.392 504.012C341.043 502.147 343.28 500.829 345.093 499.169C341.105 494.395 331.846 497.41 326.487 494.818C320.113 491.747 316.35 485.3 314.487 479.09C311.589 469.46 311.546 471.046 303.539 465.762C299.37 463.008 293.831 453.95 294.504 448.753C300.411 447.678 297.214 442.276 294.454 439.789C299.576 438.21 302.006 434.194 308.162 433.976C310.131 428.873 313.427 426.61 308.978 422.47C306.486 420.151 300.473 419.598 297.302 418.075C291.239 403.832 282.148 418.199 273.001 411.305C273.824 412.318 274.291 414.904 274.87 415.998C274.247 416.178 273.655 416.054 273.001 416.203C272.702 418.448 267.686 416.825 271.007 421.91C266.172 422.283 265.842 418.249 260.521 418.976C260.315 423.172 257.972 426.038 255.386 429.146C254.209 427.984 249.685 422.656 247.772 422.451C243.834 422.034 244.034 425.373 241.024 426.517C233.971 429.177 228.313 426.989 226.419 436.867C225.484 441.753 227.665 453.074 230.394 457.127C233.447 461.665 242.47 466.533 242.495 457.749C246.158 455.971 248.433 451.389 252.769 451.345C255.131 451.345 263.723 455.467 265.325 457.071C269.182 460.938 267.194 467.689 268.739 472.314C270.284 476.939 275.095 479.307 276.49 483.808C284.908 485.014 282.721 492.978 286.778 498.311C288.647 500.798 291.962 501.662 293.731 503.285C295.601 505.019 297.146 508.326 299.096 509.551C300.766 510.602 302.012 510.794 304.156 510.919C305.402 510.981 308.978 509.054 308.424 508.942C313.963 510.011 310.293 511.242 313.278 514.935C316.605 519.093 326.593 517.253 325.036 525.335C333.03 526.149 336.419 535.81 336.694 542.741C336.865 547.157 337.294 551.56 337.977 555.926C338.507 559.489 336.831 561.596 338.102 564.232Z" fill="#F2F3F2"/>
  <path d="M264.564 398.119C268.926 401.669 272.82 402.57 278.441 402.272C284.348 401.949 289.781 403.385 295.781 402.962C298.704 402.757 308 402.191 309.845 399.655C312.468 396.049 312.96 387.7 313.209 383.579C320.493 380.626 304.486 374.254 302.567 372.004C299.451 368.311 297.844 362.474 298.679 357.401C301.875 355.312 308.443 355.853 311.851 354.1C316.007 351.968 318.954 348.375 322.026 345.397C322.213 338.751 324.126 338.453 326.481 333.281C328.973 327.86 327.104 322.992 326.313 317.826C325.69 313.91 326.786 306.587 324.955 303.261C322.867 299.463 317.895 298.661 315.072 295.851C307.545 288.391 305.62 282.361 295.133 290.256C289.526 294.49 289.096 295.41 286.946 288.895C286.036 286.128 289.688 286.526 286.092 283.878C284.647 282.815 279.805 283.536 277.861 282.541C281.419 273.782 273.045 275.454 267.468 274.292C266.845 277.711 269.051 280.546 268.964 283.045C268.789 287.794 268.683 284.375 266.639 288.205C265.393 290.554 262.116 300.576 259.056 300.551C254.072 300.551 254.832 289.162 249.305 297.716C248.059 299.674 248.757 302.894 247.747 305.176C246.738 307.457 244.576 309.36 243.585 311.56C240.015 319.437 232.413 330.72 231.958 339.976C231.466 350.339 235.697 360.814 237.566 370.437C238.544 375.497 236.793 381.297 238.382 386.202C239.628 390.057 242.694 395.092 244.613 398.691C252.103 398.946 257.274 392.201 264.564 398.119Z" fill="#F2F3F2"/>
  <path d="M442.164 568.384C439.672 566.034 435.024 564.94 432.294 563.001C429.565 561.061 427.085 557.835 423.97 556.784C413.253 553.141 408.505 561.179 409.016 570.349C413.758 572.108 414.624 572.599 417.216 576.006C418.125 577.206 419.446 586.313 422.892 579.587C428.419 578.225 427.571 583.26 428.319 586.487C429.042 584.585 429.522 581.613 431.111 580.227C432.037 583.317 432.534 586.519 432.587 589.744C434.116 590.099 435.706 590.099 437.236 589.744C438.332 584.05 439.211 575.944 436.045 571.263C438.837 571.207 440.874 570.38 442.164 568.384Z" fill="#F2F3F2"/>
  <path d="M428.643 497.441C422.132 491.063 413.62 484.337 406.044 493.512C398.735 502.358 401.638 510.564 403.508 518.901C406.804 533.541 388.08 533.404 385.65 520.952C384.584 515.519 386.161 510.154 385.469 504.553C384.846 499.281 381.681 494.606 384.803 489.117C394.024 472.954 401.171 513.324 402.486 514.493C407.003 518.503 408.337 514.238 411.882 512.205C417.546 508.967 427.889 506.138 428.643 497.441Z" fill="#F2F3F2"/>
  <path d="M485.176 421.649C488.821 418.995 489.862 414.537 492.117 411.267C493.096 409.838 492.547 408.47 494.161 407.084C495.576 405.84 498.598 408.066 500.261 406.282C504.959 401.253 493.507 388.95 488.753 387.632C489.251 377.25 482.079 379.178 475.462 378.077C468.079 376.834 456.059 374.621 463.524 386.712C465.511 389.932 468.452 391.685 470.079 395.024C471.911 398.803 473.331 401.7 475.637 405.592C478.696 410.739 481.22 417.907 485.176 421.649Z" fill="#F2F3F2"/>
  <path d="M410.25 370.431C410.25 375.348 412.493 385.612 406.05 386.401C404.679 386.569 400.361 383.138 398.461 382.876C395.477 382.585 392.466 382.876 389.594 383.734C384.298 385.276 381.494 389.174 377.799 392.593C374.104 396.012 370.322 397.821 365.038 398.654C358.763 399.649 352.576 404.871 349.71 398.921C346.694 392.705 351.847 382.833 356.851 378.059C360.465 374.615 363.505 372.271 368.471 370.965C373.599 369.623 375.02 367.64 379.724 366.141C385.027 364.457 389.694 366.371 396.361 366.278C401.015 366.216 410.25 365.116 410.25 370.431Z" fill="#F2F3F2"/>
  <path d="M289.538 251.378C283.849 249.513 287.438 236.701 287.351 232.106C281.587 230.981 281.295 233.81 277.568 235.961C273.282 238.447 272.44 238.721 266.764 239.025C265.462 242.358 265.431 245.988 267.979 248.468C259.031 247.225 260.589 255.642 261.792 261.759C262.49 265.334 263.038 276.387 266.091 278.233C267.892 279.327 274.141 277.612 275.525 276.294C278.609 273.359 276.64 271.544 277.73 267.995C279.824 261.156 285.799 256.68 289.538 251.378Z" fill="#F2F3F2"/>
  <path d="M448.408 245.149C453.112 245.199 465.698 256.388 466.546 247.331C471.169 246.585 478.64 247.778 480.335 252.074C481.226 254.337 479.163 257.165 479.612 258.981C480.447 262.362 481.481 261.343 483.058 263.991C488.161 272.415 494.896 277.17 505.177 277.804C506.076 279.061 506.842 280.407 507.464 281.82C504.38 286.65 499.651 287.316 494.298 288.167C492.871 293.228 496.884 295.627 500.342 297.871C500.829 299.012 501.233 300.186 501.551 301.384C493.414 305.673 491.071 310.926 490.622 319.797C485.93 319.722 478.939 319.897 474.789 320.58C470.64 321.264 465.2 324.279 460.932 324.093C455.168 323.838 451.891 320.885 445.629 321.134C439.367 321.382 432.699 320.674 426.886 322.501C423.366 323.614 417.963 328.475 413.876 326.685C408.629 324.385 410.567 316.521 410.947 312.288C411.19 309.59 412.331 303.019 410.947 300.607C409.701 298.369 406.704 298.624 404.847 296.908C402.99 295.192 404.941 292.979 402.623 291.512C398.704 289.025 392.653 291.742 388.734 292.196C383.126 292.848 377.786 293.035 375.537 286.682C373.375 280.577 376.266 278.886 379.712 276.99C382.248 275.597 383.257 276.99 385.806 274.876C387.905 273.154 387.114 269.667 389.413 268.66C391.538 267.709 400.997 271.016 402.629 272.688C405.526 275.66 403.103 281 406.511 283.43C409.003 285.233 415.988 283.269 418.842 282.299C426.992 279.52 431.497 273.235 434.344 265.091C435.983 260.423 432.363 256.643 434.519 252.789C437.13 248.133 444.32 247.785 448.408 245.149Z" fill="#F2F3F2"/>
  <path d="M503.215 424.415C496.485 422.14 494.921 425.696 489.631 423.682C485.319 422.041 484.46 416.29 481.575 412.405C479.6 409.744 476.796 408.364 475.637 405.567C474.54 402.931 472.87 400.14 471.842 397.262C470.471 393.438 467.829 386.395 464.552 384.082C459.118 380.234 453.23 383.921 448.975 386.861C442.432 391.356 441.342 389.248 433.179 388.422C428.93 387.986 414.181 384.269 410.661 386.457C408.393 387.868 408.879 398.474 406.984 401.047C402.224 407.525 401.377 412.281 397.844 418.734C395.638 419.902 394.379 421.842 391.675 421.761C384.653 434.331 397.713 431.03 402.666 439.621C405.327 444.228 401.302 447.672 407.489 450.04C412.324 451.905 415.321 449.835 419.615 449.58C420.499 462.013 428.051 463.12 440.98 461.839C445.086 461.435 452.657 461.28 456.09 459.539C458.24 458.445 458.907 455.859 460.757 454.734C463.088 453.322 465.119 453.552 467.879 452.806C473.182 451.389 475.238 450.084 480.528 451.234C484.266 452.048 487.93 455.585 491.457 455.585C504.542 455.411 483.893 432.416 501.046 435.394C502.211 433.572 503.458 426.66 503.215 424.415Z" fill="#F2F3F2"/>
  <path d="M302.025 256.917C299.863 260.529 296.641 270.662 305.377 267.87C306.835 265.384 306.231 262.897 304.131 261.069L302.025 256.917Z" fill="#F2F3F2"/>
  <path d="M314.512 284.605C315.963 286.023 316.568 287.67 315.795 290.051C309.527 291.294 307.957 281.397 314.512 282.529V284.605Z" fill="#F2F3F2"/>
  <path d="M288.049 274.808C288.709 271.78 288.429 268.803 286.074 267.298C286.074 267.311 277.668 277.301 288.049 274.808Z" fill="#F2F3F2"/>
  <path d="M406.087 382.889C411.838 387.999 410.511 399.904 408.168 406.425C405.676 413.4 398.448 416.75 396.261 423.626C383.668 424.95 335.965 439.068 343.847 411.473C347.585 398.418 356.171 399.226 368.627 397.268C371.686 396.789 371.985 393.258 373.986 391.853C376.16 390.324 378.596 389.988 381.151 388.583C385.257 386.358 388.13 382.534 392.871 381.471C396.361 380.688 403.962 380.993 406.087 382.889Z" fill="#F2F3F2"/>
  <path d="M323.534 344.129C320.718 348.406 323.11 352.285 323.534 356.562C324.007 361.504 322.842 366.552 322.842 371.102C322.842 375.653 324.961 379.134 320.755 382.168C316.424 385.276 311.271 382.653 307.751 379.905C305.14 377.872 301.408 373.688 299.944 370.443C298.803 367.926 296.461 357.631 297.813 355.144C300.137 350.892 306.455 353.031 310.349 352.409C314.455 351.781 319.216 344.719 323.534 344.129Z" fill="#F2F3F2"/>
  <path d="M490.728 454.87C492.049 457.556 493.22 459.986 493.382 463.057C488.56 464.518 484.771 466.918 485.768 472.749C483.052 473.495 482.485 474.745 483.22 477.592C485.712 478.213 488.167 480.246 487.102 483.093C485.743 486.724 482.609 484.61 479.625 485.325C473.543 486.792 468.097 488.483 469.119 496.297C463.044 497.758 456.171 497.192 449.76 497.752C442.906 498.374 437.784 501.016 431.547 502.458C425.31 503.9 417.128 497.634 416.057 491.057C415.153 485.555 418.829 484.504 418.817 479.102C418.817 475.783 422.518 474.533 421.309 471.692C420.686 470.275 419.621 469.56 418.755 467.341C416.742 462.181 417.203 452.719 422.948 454.715C429.179 456.884 427.241 461.031 435.211 459.539C437.585 459.091 439.797 457.674 442.171 457.637C445.205 457.562 448.52 459.719 451.236 459.073C455.86 457.978 461.829 452.788 466.427 450.73C472.147 448.163 480.135 445.906 486.46 446.702C486.996 448.287 490.205 453.807 490.728 454.87Z" fill="#F2F3F2"/>
  <path d="M494.199 305.368C503.314 311.386 506.38 299.438 513.62 297.753C525.291 295.043 529.142 303.242 529.684 312.859C533.503 314.6 536.924 312.791 540.557 312.399C544.544 320.108 545.722 326.132 556.67 324.055C561.866 323.067 571.848 312.729 574.116 321.861C579.17 323.415 582.285 317.82 587.868 317.826C592.23 317.826 598.286 318.79 600.872 322.178C603.95 326.188 601.495 331.155 602.417 335.854C603.159 339.528 608.075 343.65 608.025 347.628C607.956 352.421 602.349 354.666 598.978 357.146C596.959 358.626 596.086 358.29 594.685 360.609C593.364 362.778 594.604 365.644 593.438 367.714C590.217 373.533 575.992 378.649 577.325 385.556C570.091 387.601 553.261 391.691 560.782 403.683C566.097 412.169 587.538 391.2 584.26 410.521C578.229 412.778 574.366 410.291 569.225 415.42C567.929 416.719 566.533 419.007 564.807 420.766C562.988 422.631 561.069 424.353 559.2 426.361C555.554 430.333 552.009 436.022 548.308 429.954C545.647 425.603 548.501 418.994 540.071 419.492C536.955 413.219 542.164 412.187 542.762 406.437C543.691 397.417 536.737 403.385 531.659 405.051C523.216 407.823 526.936 402.011 519.197 400.189C513.166 398.772 511.278 403.267 508.798 407.146C504.586 413.735 498.728 424.26 489.357 425.795C474.59 428.245 488.111 412.231 491.264 406.934C494.317 401.824 496.006 400.892 492.803 394.657C490.348 389.87 486.167 387.402 481.893 384.275C477.057 380.744 474.01 378.941 467.138 380.091C461.53 381.03 459.63 385.257 455.206 388.415C447.068 394.222 430.98 392.394 420.674 391.872C415.92 391.635 408.717 391.872 405.913 387.222C403.04 382.491 406.598 377.275 407.489 372.495C408.492 367.124 407.614 362.61 409.739 357.438C411.608 352.95 415.546 350.128 417.371 345.515C421.49 335.133 412.923 324.752 425.472 319.331C435.815 314.874 445.087 318.933 456.003 319.909C467.368 320.916 476.428 320.611 485.731 315.619C485.731 314.818 485.949 313.879 485.955 313.071C487.762 313.263 492.865 305.903 494.199 305.368Z" fill="#F2F3F2"/>
  <path d="M377.643 446.565C372.428 445.943 367.91 443.102 362.365 443.09C356.819 443.077 352.688 443.183 347.118 442.381C338.345 441.138 339.117 443.003 339.522 449.3C340.077 457.879 341.248 456.555 346.27 462.448C352.501 469.746 355.48 481.179 366.39 482.751C375.512 484.063 368.259 477.629 372.964 472.32C376.372 468.491 385.363 472.444 383.076 463.99C377.78 460.745 381.612 454.939 379.762 449.99C378.148 445.688 381.045 442.779 377.643 446.565Z" fill="#F2F3F2"/>
  <path d="M350.588 384.275C344.893 379.563 341.541 378.68 334.687 378.755C327.721 378.829 324.207 380.788 322.144 373.893C318.767 362.573 321.521 351.315 322.182 340.281C323.628 339.537 325.262 339.232 326.88 339.404C335.13 350.494 353.791 354.324 366.708 359.446C366.309 365.756 371.967 368.075 376.827 369.163C376.684 372.98 367.044 373.9 363.617 376.504C360.377 378.972 355.872 388.639 350.588 384.275Z" fill="#F2F3F2"/>
  <path d="M371.163 425.149C371.531 430.452 373.799 434.474 377.182 438.353C376.871 438.863 375.313 444.874 374.951 445.148C364.097 445.769 332.581 437.912 344.177 458.488C347.411 464.251 352.233 469.51 356.14 474.253C360.128 479.109 367.069 482.08 368.552 487.992C364.191 488.869 353.704 485.108 351.455 481.707C349.448 478.673 352.078 474.197 349.236 471.624C347.218 469.802 342.121 470.834 339.61 470.673C336.176 460.67 325.279 469.815 324.207 459.7C323.821 456.101 325.895 452.104 324.057 448.107C322.02 443.68 317.527 442.512 317.882 449.269C312.624 449.418 305.308 442.431 312.418 438.396C315.06 436.911 317.745 434.592 320.699 434.144C321.883 433.964 326.543 433.46 327.715 432.59C333.534 428.282 334.993 424.011 343.691 423.688C349.903 423.464 364.751 427.53 371.163 425.149Z" fill="#F2F3F2"/>
  <path d="M272.914 396.037C268.122 399.618 271.892 405.741 272.914 409.869C274.652 416.75 273.624 419.728 269.306 424.987C264.265 424.105 264.072 426.852 260.39 428.382C256.34 430.029 255.511 429.625 251.423 428.568C246.9 427.424 245.753 426.703 241.136 427.325C237.286 427.866 234.463 429.892 230.145 428.351C228.799 422.414 224.923 418.597 220.275 416.011C220.574 411.037 225.21 408.265 226.506 403.758C231.41 401.209 271.774 375.286 272.914 396.037Z" fill="#F2F3F2"/>
  <path d="M471.3 490.864C473.126 493.052 474.079 495.788 475.394 498.38C470.079 498.548 473.649 502.234 471.3 504.864C468.502 507.972 464.776 507.35 460.894 507.475C457.517 507.611 453.031 506.586 449.785 507.475C446.75 508.295 445.111 511.397 440.881 511.055C440.395 515.674 446.14 516.445 447.629 519.827C445.087 520.306 443.647 520.076 442.114 517.869C442.245 518.894 441.603 521.052 442.077 522.593C438.095 522.96 434.6 521.679 430.488 521.922C429.534 519.647 428.4 517.521 427.478 515.227C426.856 515.267 426.231 515.267 425.609 515.227C424.076 523.19 431.74 527.722 433.833 534.498C436.45 542.977 431.79 545.396 442.158 548.361C448.127 550.064 462.178 551.6 462.278 558.687C462.465 572.45 449.33 554.012 445.735 553.95C445.062 558.488 446.395 562.491 448.813 566.277C446.582 563.834 444.083 561.086 442.139 558.637C441.959 558.879 441.566 559.743 441.348 559.986C438.413 560.21 435.927 559.047 433.248 558.941C433.503 568.384 427.366 558.289 425.359 557.474C422.175 556.181 413.689 555.124 410.355 555.137C409.963 553.968 409.477 553.185 409.421 551.917C403.539 547.901 388.136 539.527 388.155 531.844C394.485 526.659 396.217 523.482 398.579 515.202C402.529 514.897 403.078 515.015 406.025 513.467C409.14 511.845 415.994 509.514 415.907 504.851C425.004 502.986 431.086 497.559 440.793 496.465C446.532 495.788 468.627 495.906 471.3 490.864Z" fill="#F2F3F2"/>
  <path d="M394.99 425.833C390.036 419.032 373.581 422.339 369.319 426.523C365.543 430.253 373.761 429.948 373.45 436.942C373.282 440.672 374.652 442.095 370.827 445.334C370.066 449.064 372.852 448.411 373.5 450.736C374.191 453.223 374.347 456.169 374.908 459.091C375.531 462.467 374.964 461.876 376.983 465.264C378.428 467.682 380.808 469.616 382.329 472.189C385.98 478.437 397.352 497.833 402.486 514.524C402.866 515.767 403.059 498.318 404.567 497.391C407.782 495.414 406.586 492.853 410.25 492.281C417.845 491.088 418.194 491.256 419.777 483.821C421.409 476.131 426.469 457.748 421.559 450.736C418.443 446.31 413.695 447.112 408.985 447.858C408.044 441.051 399.127 431.49 394.99 425.833Z" fill="#F2F3F2"/>
  <path d="M354.028 388.857C351.536 376.163 337.485 377.232 327.466 376.66C318.518 376.15 320.038 378.27 315.035 382.597C313.297 384.101 310.63 384.306 308.605 385.45C305.371 387.315 304.405 389.696 301.788 391.741C298.473 394.34 291.326 397.734 286.915 398.934C281.637 400.345 274.235 397.237 269.886 400.761C265.213 404.553 265.711 411.423 270.122 415.383C275.107 419.834 280.516 417.596 286.18 417.515C294.398 417.403 317.453 429.121 323.384 419.828C332.151 418.653 337.204 411.504 342.85 407.494C346.489 404.908 350.489 406.381 351.779 400.892C352.757 396.714 352.271 392.319 354.028 388.857Z" fill="#F2F3F2"/>
  <path d="M249.486 303.174C249.479 302.97 249.42 302.772 249.314 302.598C249.208 302.424 249.059 302.281 248.881 302.181C248.703 302.082 248.502 302.03 248.298 302.031C248.094 302.031 247.893 302.085 247.716 302.186C244.507 303.852 240.451 297.536 237.473 296.541C231.572 294.576 229.584 300.737 233.429 306.04C231.248 308.924 227.634 310.696 224.973 313.263C226.388 310.155 227.285 307.24 226.98 303.41C225.59 302.594 223.937 302.346 222.369 302.72C220.792 306.45 221.029 310.665 219.471 314.364C218.175 317.435 214.487 319.822 213.733 322.483C212.262 327.779 228.064 338.422 233.578 338.067C239.18 326.822 249.654 315.8 249.486 303.174Z" fill="#F2F3F2"/>
  <path d="M333.883 411.317C327.441 416.29 322.481 416.433 314.499 418.864C306.168 421.394 300.367 432.777 311.552 436.376C319.185 438.832 333.36 431.77 340.008 428.431C348.813 424.042 355.723 403.727 342.968 404.74C342.956 405.641 332.943 411.019 333.883 411.317Z" fill="#F2F3F2"/>
  <path d="M383.058 468.41C379.656 468.54 369.194 472.656 367.026 474.975C362.041 480.29 366.658 490.516 373.051 492.654C377.456 494.115 376.69 493.792 380.21 491.026C380.833 490.535 386.915 483.435 387.064 482.882C387.955 479.028 385.899 471.008 383.058 468.41Z" fill="#F2F3F2"/>
  <path d="M231.852 336.209C235.69 348.02 238.769 357.606 237.684 368.752C235.703 369.1 221.484 363.499 219.503 363.157C213.926 355.132 195.763 345.496 197.289 334.313C204.393 333.181 206.991 330.16 214.568 332.131C219.048 333.293 225.029 335.314 229.41 334.661C229.934 334.592 230.466 334.71 230.913 334.993C231.359 335.275 231.692 335.706 231.852 336.209Z" fill="#F2F3F2"/>
  <path d="M404.704 564.928C406.118 567.526 407.47 570.566 406.679 573.849C404.311 572.848 403.227 570.473 403.314 567.694L404.704 564.928Z" fill="#F2F3F2"/>
  <path d="M189.638 521.319C190.074 518.695 185.557 518.329 182.784 518.658C182.565 520.984 183.053 523.321 184.186 525.366C187.22 525.857 189.177 524.129 189.638 521.319Z" fill="#F2F3F2"/>
  <path d="M401.233 547.621C401.763 551.973 404.922 555.485 401.115 559.283C398.623 558.935 397.233 557.804 396.448 555.336C398.94 554.95 400.386 553.415 400.542 551.084L401.233 547.621Z" fill="#F2F3F2"/>
  <path d="M411.639 29.2171C411.24 28.353 411.153 26.7802 411.016 25.8974C415.134 24.4055 420.487 21.9561 419.147 16.8648C415.683 16.6659 410.654 18.2449 410.355 14.1109C420.624 11.0834 413.851 2.7408 405.495 3.71058C404.427 6.10424 403.912 8.70678 403.987 11.3259C400.479 7.52133 401.682 6.21585 402.517 0.944219C400.658 0.0020335 398.523 -0.244962 396.498 0.247965C394.086 3.52409 396.149 8.23623 393.638 11.3072C392.772 9.79037 391.856 9.95821 391.42 7.84459C390.342 7.63005 389.232 7.63005 388.155 7.84459C387.93 11.9972 389.644 19.0344 383.301 18.0211C382.678 13.9803 384.03 10.5053 385.17 7.1732C375.406 5.61906 378.378 10.3747 376.241 16.7405C373.032 26.2953 371.431 16.3613 364.552 17.5362C363.929 20.4269 365.599 22.5592 368.328 23.6595C365.493 25.2758 363.156 23.0378 360.39 22.3851C359.711 26.6869 359.281 37.1556 352.67 29.8387C349.28 31.7037 350.177 34.812 348.545 37.5535C348.507 37.6156 343.323 43.857 343.71 43.6457C337.815 46.8783 334.824 40.382 328.512 39.7168C328.575 40.9601 329.515 44.1244 329.098 45.1501C328.643 46.2753 326.494 48.7743 326.344 49.4395C325.845 51.721 322.394 51.7831 325.621 54.0087C327.983 55.6374 330.681 53.4865 331.298 51.4847C333.659 51.6153 337.753 53.6543 336.75 56.9304C335.653 60.5112 330.519 57.8567 327.129 58.4038C327.328 61.1328 329.621 62.4818 332.463 62.5564C332.351 67.2623 319.129 65.3476 325.353 72.8324C320.481 73.2302 310.754 86.285 319.272 85.4147C319.836 86.0314 320.255 86.7663 320.498 87.5655C320.74 88.3648 320.8 89.2081 320.674 90.0336C314.025 90.4128 309.184 89.8408 307.751 97.0583C306.43 103.722 313.01 108.03 302.86 108.248C301.526 110.213 300.953 112.594 301.246 114.949C299.682 114.601 297.47 115.503 295.906 115.155C296.417 117.399 295.439 118.076 296.965 119.948C296.006 119.805 294.691 120.196 293.85 120.016C293.376 121.813 290.111 126.233 290.223 127.476C290.566 132.02 293.906 131.566 295.208 127.631C296.971 127.426 297.738 127.414 299.146 128.377C297.57 130.634 293.146 135.159 290.255 135.153C287.912 135.153 286.927 130.721 285.413 130.889C282.746 131.187 283.008 133.997 281.419 135.309C280.173 136.303 277.188 137.174 276.497 137.994C275.394 139.238 275.157 142.346 274.123 143.278C269.861 147.157 269.929 145.423 263.973 143.521C265.325 149.843 259.393 148.419 255.654 146.977C256.246 149.159 256.975 150.639 259.449 151.751C256.128 152.305 252.882 152.926 249.392 153.219C250.389 157.21 256.296 157.713 260.19 157.234C252.713 159.932 246.869 157.123 245.236 166.839C248.271 168.965 249.212 170.152 252.763 171.128C255.573 171.905 260.24 168.188 260.271 173.783C255.879 175.561 246.408 173.217 245.89 179.452C247.841 180.497 249.492 181.392 251.947 180.907C252.315 181.212 252.015 182.324 252.152 182.772C252.963 182.362 253.872 182.355 254.863 181.734C256.807 189.865 245.517 186.906 247.093 194.54C246.47 194.838 245.816 194.384 245.224 194.745C245.168 195.367 245.392 196.828 245.224 197.306C249.199 196.56 252.701 198.183 253.374 202.118C251.361 202.317 244.981 203.498 244.395 205.68C243.685 208.334 248.352 210.958 249.317 213.295C251.442 218.399 250.277 228.078 260.384 223.608C263.499 222.222 265.948 217.709 269.263 215.894C272.523 214.211 275.876 212.715 279.307 211.412C282.366 210.268 284.728 210.877 287.289 208.347C289.85 205.817 288.429 202.074 292.174 200.962C292.255 203.38 292.336 205.935 292.417 208.366C301.096 213.295 301.763 180.621 307.439 180.677C311.327 172.931 306.685 165.297 304.785 157.993C302.797 150.346 303.632 138.23 308.256 132.89C310.829 129.913 315.945 129.291 318.505 126.121C321.434 122.49 321.16 118.549 322.281 114.353C324.581 105.755 327.889 100.558 328.381 90.9723C336.712 89.7289 332.376 79.6954 334.768 74.343C336.949 69.4754 341.205 68.4559 341.653 62.5315C345.722 61.655 353.791 51.6775 356.308 48.0346C358.408 44.9947 358.682 41.818 362.577 40.9539C365.979 40.1955 370.122 42.8189 374.16 43.0365C377.496 43.3083 380.854 43.0989 384.129 42.4148C386.865 41.8429 392.653 41.1715 394.847 39.4557C400.317 35.1663 399.433 22.8638 411.639 29.2171Z" fill="#F2F3F2"/>
</svg>
