<?xml version="1.0" encoding="UTF-8"?>
<svg xmlns="http://www.w3.org/2000/svg" viewBox="0 0 292.82 327.57">
  <defs>
    <style>
      .cls-1 {
        fill: #27cba4;
      }

      .cls-1, .cls-2, .cls-3, .cls-4 {
        stroke-width: 0px;
      }

      .cls-2 {
        fill: #09465c;
      }

      .cls-3 {
        fill: #ff7e6d;
      }

      .cls-4 {
        fill: #ffdb6d;
      }
    </style>
  </defs>
  <g>
    <path class="cls-1" d="m34.36,161.81v23.43c12.18-13.42,29.09-26.97,48.54-28.46,7.87-.6,16.9.24,25.95,1.91,10.76-19.16,33.59-49.06,55.7-62.92,23.27-14.6,54.58-11.6,78.17-5.89L157.34,4.52C154.42,1.61,150.31-.06,146.19,0c-3.97.05-7.9,1.71-10.71,4.52l-39.9,39.89-48.79,48.79L4.52,135.44c-2.15,2.14-3.64,4.93-4.23,7.91-.59,2.97-.28,6.12.88,8.92,1.16,2.8,3.17,5.25,5.69,6.93,2.52,1.69,5.55,2.61,8.58,2.61h18.91Zm126.55-114.25c26.54,1.3,26.13,54.95-1.25,37.81-12.63-7.91-21.04-38.9,1.25-37.81Zm-92.7,76.25c19.89,6.29,7.23,44.98-9.65,27.08-7.79-8.26-7.05-32.36,9.65-27.08Z"/>
    <g>
      <path class="cls-1" d="m79.87,251.79c-16.03,1.64-31.66,3.05-45.52,4.16v-57.68c3.24-2.03,6.59-4.05,9.83-5.9,8.19-4.67,18.41.8,19.17,10.22,1.15,14.39,8.11,32.62,16.52,49.2Z"/>
      <path class="cls-1" d="m108.51,248.92c-3.28.65-6.51,1.35-9.68,2.07-.18-.41-.33-.8-.51-1.19-4.14-9.91-6.61-17.24-3.36-16.5,2.38,3.52,7.31,9.17,13.27,15.32.08.1.18.2.27.29Z"/>
      <path class="cls-3" d="m184.54,236.29c-7.76,1.41-15.7,2.87-23.79,4.44-6.18,1.19-12.8,2.33-19.74,3.4-4.07.37-8.07.82-12.06,1.37-12.7-17.63-27.09-38.78-30.2-55.2-1.52-7.99,4.67-15.34,12.82-15.27,16.42.18,46.68,9.01,48.14,3.81.9-3.19-16.69-11.59-37.43-17.12,8.68-8.89,18.67-19.72,26.84-25.88,8.21-6.2,20.03-3.4,24.49,5.88,11,22.83,10.61,64.83,10.93,94.56Z"/>
      <path class="cls-4" d="m203.62,232.97c3.91-19.45,6.53-41.07,6.14-50.41,4.52-5.22,9.62,22.99,15.44,46.95-6.96,1.06-14.15,2.21-21.58,3.46Z"/>
      <path class="cls-4" d="m291.63,152.26c-1.15,2.81-3.17,5.26-5.69,6.94-2.52,1.68-5.55,2.6-8.58,2.6h-18.9v63.11c-4.95.61-10.11,1.27-15.48,1.99-1.41-30.8-9.17-75.14-24.18-99.27-6.29-10.12-.02-23.38,11.83-24.78,7.56-.9,15.71-1.56,23.14-1.94l34.52,34.52c2.15,2.15,3.64,4.95,4.22,7.92.61,2.97.29,6.12-.88,8.91Z"/>
    </g>
    <g>
      <path class="cls-2" d="m62.16,302.53c-.51.28-.84.51-.83.77.02.48,3.45,1.88,4.12,4.21.39,1.37.67,2.75.71,4.16.03.92-.08,1.84-.05,2.76.01.43.03.93.04,1.35.06,4.11-1.77,10.43-7.46,10.65-1.16.06-2.26.07-3.43.03-1.94-.08-3.83-.32-5.84-.42-.91-.04-1.75-.04-2.59-.08-5-.52-8.58.39-8.79-4.54-.01-.35-.03-.7-.04-1.06-.08-1.91-.62-3.8-.69-5.61-.04-.96.05-1.96,0-2.91-.05-1.16-.1-2.31-.15-3.47-.01-.35-.03-.75-.05-1.11-.15-3.57-.85-7.6-.99-11.02-.27-6.28.3-13.06.02-19.45-.14-3.27,5.03-3.34,14.28-4.19,4.49-.41,13.13.19,14.26,4.54.45,1.91,1.03,3.71,1.09,5.72.03.92.06,1.9.08,2.88,0,.33.02.7.03,1.03-.18,5.12.39,13.6-3.73,15.76Zm-15.94,15.75c.1.98.76,1.21,2.19,1.26,5.91.2,9.14-.39,8.98-5.06-.12-3.6-1.32-6.28-6.21-6.28-3.91,0-5.62-.42-5.41,3.53.11,2.13.24,4.52.45,6.54Zm-.92-27.19c.07,1.85.27,3.7.34,5.56.04,1.03-.05,2.06-.01,3.09.03.67.3.98,1.02.97,3.01-.04,9.84-.12,10.03-3.55.09-1.64.15-3.35.1-4.99-.15-4.61.05-12.44-4.91-12.59-.93-.03-1.78.03-2.71.1-2.31.17-4.42.1-4.38,1.33.05,1.23.29,2.46.34,3.7.03.72.06,1.44.08,2.11.02.46.04.93.05,1.39.04.98.07,1.91.11,2.89h-.06Z"/>
      <path class="cls-2" d="m82.35,301.31c1.44-.08,2.93-.5,4.37-.58.13,0,.26-.02.33-.02,2.75-.16,4.5-.73,4.47-2.29-.03-1.33-.18-2.64-.21-3.97-.02-.98.09-1.97.07-2.95,0-.46-.02-.86-.03-1.33-.04-2.25.37-4.6.33-6.97-.08-3.98-.08-7.92-.16-11.9,0-.11,0-.17,0-.29-.04-2.25,4.26-2.43,7.36-2.86,3.3-.46,2.78,15.15,2.82,15.76.56,8.39.21,17.85-.25,26.01-.05.71-.04,1.36-.03,2.07.01.71.02,1.36.03,2.06.02,1.53-.08,3.07-.06,4.6.02,1.06.03,2.12.05,3.18.07,4.3.39,4.51-6.98,5.27-1.3,0-1.64-.28-1.85-1.67-.43-2.93-.45-6.52-.57-9.69-.04-.9.03-1.85.01-2.77-.04-2.31.32-4.28-2.82-4.1-3.27.19-7.7,0-7.65,2.14,0,.39.08.73.09,1.12.01.51.02,1.07.04,1.58.04,1.91.48,3.88.52,5.8.04,1.92.59,3.99-1.65,4.28-1.99.26-4.45,1.2-6.46,1.17-2.01-.03-1.72-6.02-1.74-6.9-.08-2.97.3-5.84.22-8.81-.04-1.49-.21-3.08-.25-4.62-.02-.88.08-1.77.06-2.65-.02-.72-.1-1.43-.12-2.15-.05-1.98-.04-3.97-.09-5.95-.03-1.16-.06-2.37-.1-3.58-.11-4.08-1.48-15.63,1.14-16.64,1.24-.47,2.43-.72,3.69-.86,1.78-.21,3.43-.46,3.46.89.03,1.35.46,2.66.49,3.95.02,1.01-.22,2.11-.19,3.12.13,5.74.47,11.52.6,17.26.01.62-.04,1.3-.02,1.92,0,.39.02.73.09,1.06.33.26.66.3.99.29Z"/>
      <path class="cls-2" d="m107.94,316.09c-.03-2.09.46-4.39.44-6.43-.01-1.02-.22-2.09-.24-3.16-.03-1.98.34-4.04.31-6.02-.01-1.08-.16-2.27-.18-3.35-.05-3.71.1-7.39.05-11.1-.04-3.12-.61-6.17-.65-9.23-.05-3.89-.84-8.27,3.12-8.84,1.52-.22,3.04-.5,4.62-.73,2.05-.3,1.81,2.49,1.83,4.39,0,.49-.12,1-.12,1.48.02,1.53.29,3.09.31,4.61.02,1.9-.16,3.82-.14,5.65.02,1.65.1,3.36.12,4.95.02,2.14-.35,4.38-.26,6.39.32,7.69.55,15.8,1.4,23,.22,1.95.17,4.04.19,6,.03,3.31-5.19,3.12-6.84,3.29-.57.06-1.18.09-1.68.08-2.21-.03-2.14-5.06-2.18-7.58,0-.24,0-.48,0-.72-.01-.96-.09-1.79-.1-2.69Z"/>
      <path class="cls-2" d="m156.23,297.36c0,4.25-.54,8.58-.68,12.71-.35,10.66-5.41,16.76-17.46,17.02-.39,0-.84.02-1.23.03-2.27.05-4.53.41-6.87.45-4.86.09-4.59-1.19-5.33-11.21-.28-3.83-.42-7.59-.48-11.46,0-.31,0-.56,0-.87,0-.5-.07-.99-.08-1.49-.04-5.64.04-11.54.59-17.2.06-1,.08-2.03.11-2.94.01-.54-.08-1.17-.08-1.73-.04-5.1,0-10.37.41-15.37.29-3.49,9.83-4.23,11.22-4.45,9.78-1.56,18.41-.47,19.15,5.94.31,2.66.55,5.33.58,8.01,0,.33-.07.74-.07,1.07,0,3.65.15,7.38.24,10.99.08,3.42-.01,7.04-.02,10.49Zm-22.02-12.81c.02,3.93.3,7.58.31,11.52,0,1.21-.18,2.43-.18,3.7,0,1.4.42,2.84.48,4.22.18,4.27.37,8.75.51,12.93.04,1.05.39,1.26,1.43,1.21,3.12-.12,7.68-1.42,8.57-4.96.92-3.66,1.3-7.81,1.29-11.39,0-.91-.07-1.82-.07-2.73,0-5.6.71-11.59.71-17.2,0-1.69-.23-3.32-.2-4.93,0-.38,0-.78,0-1.17,0-2.67-.5-6.87-3.23-6.77-1.37.05-2.88.05-4.15.2-5.57.68-5.54.72-5.47,15.37Z"/>
      <path class="cls-2" d="m161.95,287.5c-.07-6.69.4-13.61.93-20.2.66-8.18,3.81-11.3,10.55-12.35,3.9-.61,9.91-1.25,12.21.37,2.22,1.57,4.99,2.89,5.74,5.91,1.27,5.14,1.06,10.96.99,16.94-.03,2.85-.4,6.08-.43,9.14-.01,1,.04,1.92.03,2.91-.11,9.4.1,19.37-.78,28.49-.01,1-.35,2.64-1.46,2.66-3.57.07-8.64,1.23-8.61-1.7.01-1.26.09-2.51.1-3.77.03-3.84.74-9.8-1.8-9.67-2.15.12-4.37.31-6.52.43-.2.01-.46-.04-.65-.03-1.24.21-1.18,1.16-1.19,2.73-.03,4.51.39,10.03,1.21,13.99,0,.21,0,.41,0,.55-.01,2.12-4.64,2.12-6.95,2.26-1.67.1-2.45-.1-2.52-2.57-.14-4.82-.28-10.01-.33-14.91-.07-6.95-.44-14.05-.51-21.19Zm20.11-8.28c.04-4.54-.2-14.63-2.76-15.19-.99-.21-2.17-.33-3.23-.18-4.88.67-4.67,9.53-4.72,17.47,0,.89-.01,1.71-.02,2.53-.02,3.9-.24,7.89-.27,12.06,0,.61.19,1.35.91,1.3,1.57-.12,3.07-.64,4.58-.76.2-.01.33-.02.52-.04,4.7-.35,6.19-.7,5-11.61-.11-.98-.03-3.7-.02-5.58Z"/>
      <path class="cls-2" d="m216.8,248.61c13.62-1.75,11.07,20.39,10.96,25.93-.17,8.74-1.47,21.3-9.59,23.11-1.5.13-2.94.19-4.44.33-.2,0-.46-.05-.65-.05-1.96.31-5.03.07-5.12,2.29-.31,7.05.39,14.76.38,21.93,0,3.92-6.05,3.79-7.58,3.89-2.29.16-2.62-22.4-2.82-27.43,0-.43.01-.86.02-1.3.03-2.02.12-3.96.14-5.98.02-1.87-.15-3.66-.12-5.53.03-2.16.12-4.25.15-6.42.01-.79.02-1.66.03-2.52.08-6.48.63-13,.78-19.15.03-1.14-.1-2.29-.09-3.44.03-2.02,6.19-4.04,9.82-4.54.73-.1,1.45-.2,2.18-.29.53-.07,1.12-.15,1.65-.22,1.39-.18,2.91-.46,4.3-.63Zm-9.53,19.46c.28,7.5-.57,20.52,1.92,20.35,4.91-.32,9.18-1.53,9.3-8.18.12-7.03.84-21.51-4.3-20.93-1.65.19-3.05.71-4.56,1.11-2.76.74-2.17,4.35-2.22,7.64q-.07,0-.13.01Z"/>
      <path class="cls-2" d="m232.14,281.82c.07-7.64.67-15.48,1.33-22.98.82-9.29,4.02-12.63,10.76-13.29,3.9-.38,9.91-.59,12.16,1.46,2.18,1.98,4.92,3.74,5.61,7.23,1.17,5.94.85,12.51.67,19.29-.09,3.22-.51,6.86-.6,10.32-.03,1.13,0,2.18-.02,3.3-.28,10.64-.26,21.95-1.32,32.21-.03,1.13-.4,2.96-1.51,2.9-3.57-.2-8.66.76-8.58-2.57.04-1.42.14-2.85.17-4.27.11-4.35.93-11.08-1.62-11.11-2.15-.02-4.37.04-6.52.04-.2,0-.45-.08-.65-.08-1.24.15-1.2,1.24-1.24,3.03-.12,5.14.2,11.44.94,16,0,.23-.01.47-.01.62-.06,2.42-4.7,2.13-6.99,2.18-1.66.03-2.44-.23-2.46-3.06-.04-5.53-.08-11.42-.04-17.03.07-7.95-.16-16.03-.09-24.19Zm20.23-7.99c.13-5.15.08-16.63-2.46-17.48-.98-.33-2.16-.55-3.21-.47-4.88.37-4.84,10.49-5.05,19.51-.02,1.01-.04,1.95-.07,2.88-.1,4.44-.4,8.96-.51,13.7-.02.7.16,1.55.88,1.54,1.57-.03,3.08-.52,4.58-.54.2,0,.33,0,.52,0,4.7-.06,6.2-.18,5.22-12.8-.09-1.15.04-4.2.09-6.34Z"/>
    </g>
  </g>
</svg>