<?xml version="1.0" encoding="UTF-8"?>
<svg id="Layer_2" data-name="Layer 2"
  xmlns="http://www.w3.org/2000/svg" viewBox="0 0 218.33 38.02">
  <defs>
    <style>
      .cls-1 {
        fill: #fff;
      }
    </style>
  </defs>
  <g id="Layer_1-2" data-name="Layer 1">
    <g>
      <g>
        <path class="cls-1" d="M93.96,24.77l-12.77-11.76c-.6-.55-1.5-.78-2.35-.6-20.38,4.46-29.08,19.97-31.41,25.01-.19.41.37.78.77.5,4.49-3.16,19.45-12.11,45.4-12.42.43,0,.66-.46.36-.73"/>
        <path class="cls-1" d="M46.14,37.4c-2.12-5.08-10.11-20.7-30.06-25.88-1.04-.27-2.17-.01-2.94.65L.15,23.32c-.31.27-.11.73.33.75,25.92,1.1,40.51,10.51,44.87,13.81.39.29.97-.06.79-.48"/>
        <path class="cls-1" d="M89.5,34.79c.74.68.04,1.78-1.01,1.59-14.41-2.55-25.6-1.22-32.72.47-.51.12-.79-.5-.32-.72,5.83-2.73,14.68-5.73,26.62-6.69.94-.08,1.87.23,2.52.83l4.91,4.53Z"/>
        <path class="cls-1" d="M38.6,35.87c-5.78-2.94-14.64-6.25-26.74-7.55-.69-.07-1.38.14-1.88.56l-5.36,4.6c-.76.66-.11,1.78.95,1.62,14.5-2.11,25.63-.43,32.68,1.48.51.14.81-.48.35-.71"/>
        <path class="cls-1" d="M78.23,4.19c-.28,0-.57.04-.86.14-10.2,3.37-16.96,9.52-21.24,15.06-.35.45.36.94.78.54,5.01-4.81,12.24-9.67,22.18-11.8.66-.14,1.2-.57,1.42-1.14.56-1.43-.71-2.8-2.27-2.8Z"/>
        <path class="cls-1" d="M16.73,4.33c-.29-.1-.58-.14-.86-.14-1.56,0-2.83,1.37-2.27,2.8.22.57.75,1,1.42,1.14,9.94,2.13,17.17,6.98,22.18,11.8.42.4,1.13-.09.78-.54-4.28-5.54-11.03-11.69-21.24-15.06Z"/>
        <path class="cls-1" d="M46.81,18.25s-5.59-9.93-13.82-14.73c-.84-.49-1.73.58-1.08,1.31,4.09,4.65,11.09,14.33,13.79,28.43.18.92,1.48.94,1.69.03,3.2-13.99,10.54-23.42,14.78-27.93.67-.71-.18-1.81-1.04-1.35-8.39,4.5-14.33,14.23-14.33,14.23"/>
        <path class="cls-1" d="M51.49,5.5C51.54,2.51,49.59.05,47.14,0c-2.45-.05-4.48,2.34-4.53,5.33-.05,2.99,1.9,5.45,4.36,5.5,2.45.05,4.48-2.34,4.53-5.33"/>
      </g>
      <g>
        <g>
          <polygon class="cls-1" points="106.76 20.72 106.76 19.39 101.26 19.39 101.26 20.77 104.34 20.77 101.09 24.17 101.09 25.5 106.93 25.5 106.93 24.13 103.5 24.13 106.76 20.72"/>
          <path class="cls-1" d="M109.68,19.39l-2.54,6.11h1.73l.48-1.15h3.08l.47,1.15h1.79l-2.53-6.11h-2.48ZM109.82,23.15l.68-1.58.35-.94h.07l.35.93.68,1.58h-2.13Z"/>
          <path class="cls-1" d="M121.92,19.67c-.39-.18-.91-.28-1.55-.28h-3.49v6.11h1.81v-1.74h1.66c.87,0,1.53-.19,1.99-.58.46-.39.69-.92.69-1.59,0-.44-.09-.82-.26-1.15-.18-.33-.46-.59-.85-.77ZM121.11,21.7c0,.22-.08.4-.24.52-.16.12-.43.18-.82.18h-1.37v-1.59h1.37c.71,0,1.06.23,1.06.7v.2Z"/>
          <path class="cls-1" d="M128.99,22.12c-.24-.14-.53-.24-.85-.31-.32-.07-.67-.12-1.05-.15-.39-.04-.7-.08-.92-.12-.22-.04-.37-.09-.46-.17-.09-.07-.13-.18-.13-.31,0-.17.08-.31.25-.41.17-.1.43-.15.78-.15s.61.05.83.15c.22.1.32.26.32.47h1.84c-.01-.36-.14-.68-.37-.96-.24-.27-.58-.49-1.02-.64-.44-.15-.97-.23-1.6-.23s-1.11.07-1.56.21c-.45.14-.79.36-1.04.65-.25.29-.37.66-.37,1.11,0,.42.11.75.32,1.01.22.25.53.44.94.56.41.12.91.21,1.5.26.37.03.66.06.86.11.21.04.35.11.44.18.08.08.13.18.13.32,0,.2-.1.36-.29.47-.19.11-.48.17-.88.17s-.72-.06-.96-.19c-.24-.13-.37-.32-.39-.59h-1.81c0,.6.25,1.08.76,1.45.51.37,1.29.55,2.34.55.73,0,1.32-.09,1.79-.26.46-.17.81-.4,1.03-.7.22-.3.34-.64.34-1.02s-.07-.69-.21-.93c-.14-.24-.33-.42-.57-.56Z"/>
          <rect class="cls-1" x="130.57" y="19.39" width="1.81" height="6.11"/>
          <polygon class="cls-1" points="138.64 21.71 135.36 21.71 135.36 19.39 133.55 19.39 133.55 25.5 135.36 25.5 135.36 23.1 138.64 23.1 138.64 25.5 140.44 25.5 140.44 19.39 138.64 19.39 138.64 21.71"/>
          <path class="cls-1" d="M146.87,19.66c-.55-.24-1.19-.36-1.9-.36s-1.34.12-1.9.36c-.55.24-.99.58-1.31,1.04-.32.46-.47,1.01-.47,1.66v.15c0,.65.16,1.21.47,1.67.32.46.75.81,1.31,1.04s1.19.36,1.9.36,1.34-.12,1.9-.36c.55-.24.99-.59,1.31-1.04.32-.46.47-1.01.47-1.67v-.15c0-.65-.16-1.21-.47-1.66-.32-.46-.75-.8-1.31-1.04ZM146.75,22.78c0,.4-.15.74-.44,1.01-.29.27-.74.4-1.33.4s-1.05-.13-1.34-.4c-.29-.27-.44-.6-.44-1.01v-.66c0-.41.15-.74.44-1.01s.74-.39,1.34-.39,1.04.13,1.33.39c.29.26.44.6.44,1.01v.66Z"/>
          <polygon class="cls-1" points="148.88 20.79 150.93 20.79 150.93 25.5 152.72 25.5 152.72 20.79 154.83 20.79 154.83 19.39 148.88 19.39 148.88 20.79"/>
          <polygon class="cls-1" points="155.56 25.5 161.25 25.5 161.25 24.14 157.36 24.14 157.36 23.05 160.73 23.05 160.73 21.78 157.36 21.78 157.36 20.76 161.26 20.76 161.26 19.39 155.56 19.39 155.56 25.5"/>
          <path class="cls-1" d="M168.08,22.64c.31-.32.47-.74.47-1.26,0-.63-.19-1.12-.58-1.47-.38-.35-.98-.52-1.78-.52h-4.02v6.11h1.81v-2h.93l1.45,2h2.22l-1.75-2.28c.51-.07.92-.26,1.23-.58ZM166.57,21.6c0,.19-.07.34-.2.46-.13.12-.37.18-.7.18h-1.69v-1.46h1.69c.28,0,.5.05.66.14.16.1.24.26.24.49v.18Z"/>
          <path class="cls-1" d="M171.33,19.39l-2.54,6.11h1.73l.48-1.15h3.08l.47,1.15h1.79l-2.53-6.11h-2.48ZM171.47,23.15l.68-1.58.35-.94h.07l.35.93.68,1.58h-2.13Z"/>
          <path class="cls-1" d="M181.89,19.67c-.39-.18-.91-.28-1.55-.28h-3.49v6.11h1.81v-1.74h1.66c.87,0,1.53-.19,1.99-.58.46-.39.69-.92.69-1.59,0-.44-.09-.82-.26-1.15-.18-.33-.46-.59-.85-.77ZM181.08,21.7c0,.22-.08.4-.24.52-.16.12-.43.18-.82.18h-1.37v-1.59h1.37c.71,0,1.06.23,1.06.7v.2Z"/>
          <rect class="cls-1" x="183.86" y="19.39" width="1.81" height="6.11"/>
          <path class="cls-1" d="M188.16,24.1h-1.77v1.4h2.13c.43,0,.78-.11,1.05-.32.27-.21.4-.53.4-.96v-4.83h-1.81v4.71Z"/>
          <path class="cls-1" d="M195.85,22.91c0,.41-.13.72-.4.93-.27.21-.62.32-1.07.32-.49,0-.87-.11-1.13-.34-.26-.22-.39-.53-.39-.91v-3.52h-1.78v3.66c0,.48.11.91.34,1.29.23.38.58.68,1.07.91.48.22,1.1.33,1.85.33.65,0,1.22-.1,1.72-.3.5-.2.89-.49,1.17-.86.28-.38.42-.83.42-1.37v-3.66h-1.8v3.52Z"/>
        </g>
        <g>
          <path class="cls-1" d="M112.13,14.54h3.88l-4.75-11.67h-5.39l-4.78,11.67h3.74l.82-1.99h5.69l.79,1.99ZM106.66,9.95l1.06-2.48.71-1.92h.13l.71,1.91,1.06,2.5h-3.66Z"/>
          <path class="cls-1" d="M144.86,14.54l-4.75-11.67h-5.39l-4.66,11.38-5.08-6.46,5.13-4.91h-4.87l-4.51,4.63V2.87h-3.93v11.67h3.93v-2.93l1.57-1.26,3.19,4.19h8.18l.82-1.99h5.69l.79,1.99h3.88ZM135.51,9.95l1.06-2.48.71-1.92h.13l.71,1.91,1.06,2.5h-3.66Z"/>
          <path class="cls-1" d="M155.39,13.92c1.05-.42,1.87-1.05,2.46-1.91.59-.85.89-1.94.89-3.25v-.11c0-1.32-.3-2.41-.89-3.26-.59-.85-1.41-1.48-2.46-1.9-1.05-.42-2.26-.62-3.62-.62h-6.11v11.67h6.11c1.37,0,2.58-.21,3.62-.62ZM149.59,11.6v-5.78h2.04c.75,0,1.34.1,1.76.3.43.2.73.48.91.83.18.35.27.76.27,1.23v1.04c0,.46-.09.87-.27,1.22-.18.36-.49.64-.91.84-.43.2-1.02.3-1.76.3h-2.04Z"/>
          <polygon class="cls-1" points="171.39 11.6 164.13 11.6 164.13 10.03 170.38 10.03 170.38 7.31 164.13 7.31 164.13 5.82 171.43 5.82 171.43 2.87 160.2 2.87 160.2 14.54 171.39 14.54 171.39 11.6"/>
          <polygon class="cls-1" points="176.7 6.49 176.72 6.12 176.89 6.12 176.99 6.49 179.19 14.54 182.78 14.54 184.91 6.51 185.02 6.12 185.18 6.12 185.2 6.51 185.2 14.54 188.9 14.54 188.9 2.87 182.99 2.87 181 10.04 180.9 10.04 179.11 2.87 173.03 2.87 173.03 14.54 176.7 14.54 176.7 6.49"/>
          <rect class="cls-1" x="190.92" y="2.87" width="3.93" height="11.67"/>
          <path class="cls-1" d="M203.3,11.84V2.87h-3.91v8.66h-3.26v3.01h4.1c.91,0,1.65-.22,2.21-.67.57-.45.85-1.13.85-2.03Z"/>
          <path class="cls-1" d="M213.58,2.87h-5.39l-4.78,11.67h3.74l.82-1.99h5.69l.79,1.99h3.88l-4.75-11.67ZM208.98,9.95l1.06-2.48.71-1.92h.13l.71,1.91,1.06,2.5h-3.66Z"/>
        </g>
        <g>
          <path class="cls-1" d="M101.09,30.84h.4l.03.48h.03c.06-.17.16-.3.3-.39.15-.09.31-.14.49-.14.33,0,.57.11.74.34s.25.55.25.97v.29c0,.43-.09.75-.25.97-.17.21-.41.32-.72.32-.18,0-.35-.05-.5-.14-.15-.1-.25-.22-.31-.39h-.03v1.36h-.43v-3.66ZM102.71,33.12c.12-.13.18-.32.18-.58v-.61c0-.26-.06-.46-.18-.59-.12-.13-.29-.19-.5-.19s-.38.07-.5.22-.18.34-.18.58v.57c0,.24.06.44.18.58s.29.22.5.22.38-.06.5-.19Z"/>
          <path class="cls-1" d="M104.15,33.33c-.19-.23-.29-.55-.29-.96v-.28c0-.44.11-.77.32-.98s.49-.32.84-.32c.35,0,.63.11.84.32.21.21.31.54.31.98v.28c0,.42-.1.74-.29.96-.19.22-.48.34-.86.34s-.67-.11-.86-.34ZM105.54,33.11c.12-.13.18-.32.18-.55v-.67c0-.23-.06-.41-.18-.55-.12-.14-.3-.21-.53-.21s-.4.07-.53.21c-.12.14-.19.32-.19.55v.67c0,.23.06.42.18.55.12.13.3.2.53.2s.41-.07.53-.2Z"/>
          <path class="cls-1" d="M106.55,30.84h.41l.51,2.18.03.18h.03l.04-.18.51-2.18h.46l.51,2.18.03.18h.03l.04-.18.51-2.18h.41l-.69,2.78h-.53l-.48-2.07-.04-.21h-.02l-.04.21-.48,2.07h-.53l-.69-2.78Z"/>
          <path class="cls-1" d="M110.75,33.32c-.19-.23-.29-.56-.29-.97v-.27c0-.43.11-.75.32-.96s.49-.33.83-.33c.36,0,.63.11.83.33.19.21.29.5.29.87v.35h-1.83v.25c0,.23.06.41.19.54.13.14.3.2.53.2.2,0,.36-.05.48-.16.12-.11.19-.25.2-.43h.41c-.01.29-.12.52-.33.68s-.46.25-.76.25c-.39,0-.68-.12-.87-.35ZM110.89,32.04h1.4v-.11c0-.28-.06-.48-.18-.61-.12-.13-.29-.2-.51-.2-.24,0-.42.07-.54.22-.12.15-.17.34-.17.59v.11Z"/>
          <path class="cls-1" d="M113.43,31.26c0-.14.04-.24.12-.32.08-.07.18-.11.31-.11h1v.36h-1v2.42h-.42v-2.35Z"/>
          <path class="cls-1" d="M115.5,33.32c-.19-.23-.29-.56-.29-.97v-.27c0-.43.11-.75.32-.96s.49-.33.83-.33c.36,0,.63.11.83.33.19.21.29.5.29.87v.35h-1.83v.25c0,.23.06.41.19.54.13.14.3.2.53.2.2,0,.36-.05.48-.16.12-.11.19-.25.2-.43h.41c-.01.29-.12.52-.33.68s-.46.25-.76.25c-.39,0-.68-.12-.87-.35ZM115.65,32.04h1.4v-.11c0-.28-.06-.48-.18-.61-.12-.13-.29-.2-.51-.2-.24,0-.42.07-.54.22-.12.15-.17.34-.17.59v.11Z"/>
          <path class="cls-1" d="M118.24,33.33c-.16-.23-.25-.55-.25-.96v-.29c0-.43.09-.75.26-.97.17-.21.41-.32.72-.32.19,0,.35.05.5.14.15.1.25.22.3.39h.03v-1.56h.42v3.86h-.4l-.02-.48h-.03c-.06.16-.16.29-.3.39-.15.1-.31.15-.5.15-.33,0-.57-.11-.74-.34ZM119.63,33.1c.12-.14.18-.34.18-.59v-.57c0-.24-.06-.43-.18-.58-.12-.14-.29-.22-.5-.22s-.37.06-.5.19c-.12.13-.18.32-.18.58v.61c0,.26.06.46.18.59.12.13.29.19.5.19s.38-.07.5-.22Z"/>
          <path class="cls-1" d="M123.02,33.52c-.15-.1-.25-.23-.3-.39h-.03l-.03.48h-.4v-3.86h.43v1.56h.03c.06-.16.16-.29.31-.39.15-.1.31-.14.5-.14.33,0,.57.11.73.33.16.22.24.54.24.95v.29c0,.43-.09.76-.25.98-.17.22-.41.33-.73.33-.18,0-.35-.05-.49-.15ZM123.87,33.12c.12-.13.18-.32.18-.59v-.61c0-.26-.06-.46-.18-.58-.12-.13-.29-.19-.5-.19s-.38.07-.5.22-.18.34-.18.58v.57c0,.25.06.44.18.59s.29.22.5.22.38-.06.5-.19Z"/>
          <path class="cls-1" d="M124.91,34.16h.91v-.82l-1-2.5h.45l.66,1.8.08.25h.03l.09-.25.67-1.8h.45l-1.01,2.5v.82c0,.12-.03.2-.09.26-.06.05-.15.08-.25.08h-.99v-.34Z"/>
          <path class="cls-1" d="M129.1,29.75h1.48c.34,0,.6.08.78.24.18.16.27.4.27.72,0,.23-.05.43-.15.58-.1.16-.26.26-.47.31v.03c.22.04.39.13.51.29.12.16.19.37.19.63,0,.36-.1.63-.31.8-.21.17-.49.26-.85.26h-1.44v-3.86ZM129.54,30.1v1.37h.97c.21,0,.37-.05.49-.15.12-.1.18-.24.18-.43v-.24c0-.18-.06-.32-.18-.42s-.29-.14-.5-.14h-.94ZM129.54,31.8v1.47h.97c.23,0,.41-.06.54-.17.13-.11.19-.27.19-.47v-.23c0-.2-.06-.35-.19-.45-.13-.1-.3-.15-.52-.15h-.99Z"/>
          <path class="cls-1" d="M132.48,29.75h.45v1.71h1.88v-1.71h.45v3.86h-.45v-1.77h-1.88v1.77h-.45v-3.86Z"/>
          <path class="cls-1" d="M136.33,29.75h.45v3.86h-.45v-3.86Z"/>
          <path class="cls-1" d="M137.86,29.75h1.28c.49,0,.87.14,1.14.42.27.28.41.71.41,1.3v.42c0,.4-.06.73-.19.98-.13.25-.31.44-.54.56-.23.12-.51.18-.82.18h-1.28v-3.86ZM139.13,33.23c.36,0,.63-.1.81-.3.19-.2.28-.48.28-.86v-.78c0-.35-.09-.62-.26-.83-.18-.21-.45-.32-.83-.32h-.83v3.09h.83Z"/>
          <path class="cls-1" d="M142.21,29.75h.62l1.23,3.86h-.45l-.3-.94h-1.58l-.3.94h-.44l1.23-3.86ZM143.21,32.32l-.44-1.41-.24-.77h-.03l-.24.78-.44,1.4h1.39Z"/>
          <path class="cls-1" d="M144.63,29.75h1.37c.4,0,.7.1.9.3.2.2.31.5.31.89s-.1.68-.31.89c-.2.21-.51.31-.91.31h-.92v1.46h-.45v-3.86ZM145.07,30.14v1.65h.88c.25,0,.44-.06.58-.18.14-.12.2-.29.2-.51v-.28c0-.22-.07-.39-.2-.51-.14-.12-.33-.18-.58-.18h-.88Z"/>
          <path class="cls-1" d="M148.41,29.75h.62l1.23,3.86h-.45l-.3-.94h-1.58l-.3.94h-.44l1.23-3.86ZM149.41,32.32l-.44-1.41-.24-.77h-.03l-.24.78-.44,1.4h1.39Z"/>
          <path class="cls-1" d="M150.55,31.89h1.42v.37h-1.42v-.37Z"/>
          <path class="cls-1" d="M152.81,29.75h2.31v.39h-1.87v1.31h1.65v.37h-1.65v1.41h1.87v.39h-2.32v-3.86Z"/>
          <path class="cls-1" d="M156.7,29.75h.62l1.23,3.86h-.45l-.3-.94h-1.58l-.3.94h-.44l1.23-3.86ZM157.7,32.32l-.44-1.41-.24-.77h-.03l-.24.78-.44,1.4h1.39Z"/>
          <path class="cls-1" d="M159.12,29.75h1.37c.4,0,.7.1.9.3.2.2.31.5.31.89s-.1.68-.31.89c-.2.21-.51.31-.91.31h-.92v1.46h-.45v-3.86ZM159.56,30.14v1.65h.88c.25,0,.44-.06.58-.18.14-.12.2-.29.2-.51v-.28c0-.22-.07-.39-.2-.51-.14-.12-.33-.18-.58-.18h-.88Z"/>
          <path class="cls-1" d="M163.59,30.14v3.48h-.45v-3.48h-1.09v-.39h2.63v.39h-1.09Z"/>
          <path class="cls-1" d="M165.31,29.75h.45v3.86h-.45v-3.86Z"/>
        </g>
      </g>
    </g>
  </g>
</svg>