<svg xmlns="http://www.w3.org/2000/svg" viewBox="0 0 124.6445 82.42544">
  <g id="Layer_2" data-name="Layer 2">
    <g id="Layer_1-2" data-name="Layer 1">
      <path d="M112.1984,26.336,98.619,13.83184a2.82769,2.82769,0,0,0-2.4942-.63551,48.28085,48.28085,0,0,0-33.3952,26.5889c-.2041.44111.3957.83141.8189.53351,4.7727-3.3627,20.6816-12.8783,48.2703-13.2012.4624-.0054.6985-.4878.3796-.7815" style="fill: #039bbe"/>
      <path d="M61.357,39.764A47.6712,47.6712,0,0,0,29.3975,12.25033a3.50679,3.50679,0,0,0-3.1266.6923L12.4588,24.79684a.4558.4558,0,0,0,.3478.79249c27.5582,1.17411,43.0748,11.17361,47.71,14.68181.4118.3118,1.027-.0592.8404-.5071" style="fill: #039bbe"/>
      <path d="M94.5564,4.60593a46.813,46.813,0,0,0-22.5805,16.0123c-.3699.47851.3827.99951.8274.57181A48.29006,48.29006,0,0,1,96.3822,8.64724a2.04939,2.04939,0,0,0,1.5055-1.21041,2.31548,2.31548,0,0,0-2.4157-2.9803A2.91445,2.91445,0,0,0,94.5564,4.60593Z" style="fill: #cbb26e;fill-rule: evenodd"/>
      <path d="M26.7568,7.43683a2.04814,2.04814,0,0,0,1.5055,1.21041A48.28924,48.28924,0,0,1,51.8411,21.19c.4448.4277,1.1974-.0933.8272-.57181A46.812,46.812,0,0,0,30.0878,4.60593a2.91308,2.91308,0,0,0-.9156-.1494A2.31518,2.31518,0,0,0,26.7568,7.43683Z" style="fill: #cbb26e;fill-rule: evenodd"/>
      <path d="M107.4566,36.98744c.7832.7212.038,1.8899-1.0752,1.6926-15.3227-2.713-27.2208-1.3005-34.7879.5003-.5428.1293-.8402-.5332-.3441-.7656a82.14494,82.14494,0,0,1,28.3059-7.11641,3.551,3.551,0,0,1,2.6768.87791Z" style="fill: #09465c"/>
      <path d="M53.3424,38.13833a81.80137,81.80137,0,0,0-28.4338-8.03249,2.648,2.648,0,0,0-1.9939.5975l-5.6988,4.8918c-.8115.6964-.1136,1.8873,1.0069,1.7249,15.4208-2.23911,27.2551-.4604,34.7451,1.5729.5372.1457.8609-.5071.3745-.75461" style="fill: #09465c"/>
      <path d="M62.0657,19.407S56.1183,8.84884,47.3763,3.749a.91742.91742,0,0,0-1.1529,1.39489A64.80223,64.80223,0,0,1,60.8871,35.37a.91588.91588,0,0,0,1.7937.0315A64.81589,64.81589,0,0,1,78.3995,5.70884a.91685.91685,0,0,0-1.1027-1.4337C68.3802,9.06424,62.0657,19.407,62.0657,19.407" style="fill: #09465c"/>
      <path d="M67.0487,5.84913C67.0992,2.66954,65.0242.05124,62.4138.00074c-2.6099-.0504-4.767,2.4854-4.8181,5.665-.0507,3.1791,2.0243,5.79719,4.6347,5.8479,2.6101.0508,4.7676-2.48541,4.8183-5.66451" style="fill: #09465c"/>
      <polygon points="17.013 65.325 17.013 63.917 11.167 63.917 11.167 65.388 14.443 65.388 10.988 68.996 10.988 70.413 17.192 70.413 17.192 68.952 13.541 68.952 17.013 65.325" style="fill: #09465c"/>
      <path d="M20.1197,63.91714l-2.7045,6.4962H19.254l.5086-1.2209h3.276l.5,1.2209h1.9012l-2.6869-6.4962Zm.1426,3.9921.7231-1.6753.3751-.9981h.0714l.3747.9893.7232,1.6841Z" style="fill: #09465c"/>
      <path d="M33.1294,64.21114a3.87869,3.87869,0,0,0-1.6467-.294H27.769v6.4962h1.9194v-1.8536h1.7674a3.20606,3.20606,0,0,0,2.1197-.6193,2.089,2.089,0,0,0,.7365-1.6886,2.552,2.552,0,0,0-.2809-1.2209,1.90545,1.90545,0,0,0-.9017-.8198m-.8615,2.1566a.64531.64531,0,0,1-.2543.5482,1.48937,1.48937,0,0,1-.8702.1914h-1.455v-1.6932h1.455q1.1247,0,1.1245.7399Z" style="fill: #09465c"/>
      <path d="M40.6454,66.81764a3.149,3.149,0,0,0-.9059-.3252,9.94272,9.94272,0,0,0-1.116-.1604q-.6246-.0621-.9729-.1247a1.08015,1.08015,0,0,1-.4867-.1783.406.406,0,0,1-.138-.3297.48048.48048,0,0,1,.2675-.4323,1.70929,1.70929,0,0,1,.8303-.1556,2.08913,2.08913,0,0,1,.8793.1601.52556.52556,0,0,1,.3436.4992h1.9548a1.58013,1.58013,0,0,0-.3972-1.0159,2.44429,2.44429,0,0,0-1.0845-.6775,5.28409,5.28409,0,0,0-1.696-.2404,5.45143,5.45143,0,0,0-1.6557.2271,2.31966,2.31966,0,0,0-1.1024.6953,1.77175,1.77175,0,0,0-.3929,1.1807,1.58952,1.58952,0,0,0,.3436,1.0695,2.05064,2.05064,0,0,0,.9998.5969,8.04252,8.04252,0,0,0,1.5933.2761,7.209,7.209,0,0,1,.9196.116.99826.99826,0,0,1,.464.1961.43951.43951,0,0,1,.1341.3385.55274.55274,0,0,1-.3036.4989,1.90742,1.90742,0,0,1-.9374.1783,2.1977,2.1977,0,0,1-1.0174-.2007.73765.73765,0,0,1-.4198-.6279H34.8211a1.78417,1.78417,0,0,0,.8033,1.537,4.286,4.286,0,0,0,2.4902.5839,5.59985,5.59985,0,0,0,1.9015-.2721,2.34072,2.34072,0,0,0,1.0979-.7438,1.75649,1.75649,0,0,0,.3571-1.0874,1.95812,1.95812,0,0,0-.2188-.9848,1.58708,1.58708,0,0,0-.6069-.5969" style="fill: #09465c"/>
      <rect x="42.3278" y="63.91714" width="1.9193" height="6.4962" style="fill: #09465c"/>
      <polygon points="50.906 66.385 47.416 66.385 47.416 63.917 45.496 63.917 45.496 70.413 47.416 70.413 47.416 67.856 50.906 67.856 50.906 70.413 52.825 70.413 52.825 63.917 50.906 63.917 50.906 66.385" style="fill: #09465c"/>
      <path d="M59.6625,64.20664a5.56234,5.56234,0,0,0-4.0346,0,3.15678,3.15678,0,0,0-1.3881,1.1052,3.02436,3.02436,0,0,0-.5043,1.7688v.1602a3.04613,3.04613,0,0,0,.5043,1.7736,3.146,3.146,0,0,0,1.3881,1.1092,5.55823,5.55823,0,0,0,4.0346,0,3.14848,3.14848,0,0,0,1.3878-1.1092,3.04627,3.04627,0,0,0,.5046-1.7736v-.1602a3.0245,3.0245,0,0,0-.5046-1.7688,3.15928,3.15928,0,0,0-1.3878-1.1052m-.1338,3.3105a1.393,1.393,0,0,1-.4643,1.0693,2.57442,2.57442,0,0,1-2.8429,0,1.38659,1.38659,0,0,1-.4688-1.0693v-.7038a1.36947,1.36947,0,0,1,.4688-1.0692,2.62062,2.62062,0,0,1,2.8429,0,1.37579,1.37579,0,0,1,.4643,1.0692Z" style="fill: #09465c"/>
      <polygon points="61.795 65.405 63.974 65.405 63.974 70.413 65.875 70.413 65.875 65.405 68.124 65.405 68.124 63.917 61.795 63.917 61.795 65.405" style="fill: #09465c"/>
      <polygon points="68.892 70.413 74.944 70.413 74.944 68.961 70.811 68.961 70.811 67.802 74.391 67.802 74.391 66.457 70.811 66.457 70.811 65.37 74.962 65.37 74.962 63.917 68.892 63.917 68.892 70.413" style="fill: #09465c"/>
      <path d="M82.2095,67.37034a1.83887,1.83887,0,0,0,.5001-1.3413,1.99441,1.99441,0,0,0-.6117-1.5594,2.74918,2.74918,0,0,0-1.8879-.5525H75.9345v6.4962h1.9193v-2.1299h.9907l1.5441,2.1299h2.3655l-1.8567-2.4239a2.16315,2.16315,0,0,0,1.3121-.6191m-1.6066-1.1095a.61849.61849,0,0,1-.2143.4901,1.135,1.135,0,0,1-.7407.1868H77.8538v-1.5502h1.7941a1.3726,1.3726,0,0,1,.7007.1513.56189.56189,0,0,1,.2543.5259Z" style="fill: #09465c"/>
      <path d="M85.6638,63.91714l-2.7042,6.4962h1.8385l.5089-1.2209h3.276l.5,1.2209h1.9012l-2.687-6.4962Zm.1429,3.9921.7231-1.6753.3751-.9981h.0714l.3747.9893.7231,1.6841Z" style="fill: #09465c"/>
      <path d="M96.8885,64.21114a3.87869,3.87869,0,0,0-1.6467-.294H91.5282v6.4962h1.9193v-1.8536h1.7674a3.20606,3.20606,0,0,0,2.1197-.6193,2.08922,2.08922,0,0,0,.7368-1.6886,2.55211,2.55211,0,0,0-.2812-1.2209,1.90545,1.90545,0,0,0-.9017-.8198m-.8615,2.1566a.64524.64524,0,0,1-.2542.5482,1.49038,1.49038,0,0,1-.8703.1914h-1.455v-1.6932h1.455q1.1247,0,1.1245.7399Z" style="fill: #09465c"/>
      <rect x="98.9819" y="63.91714" width="1.9193" height="6.4962" style="fill: #09465c"/>
      <path d="M103.5609,68.92514h-1.8836v1.4882h2.2675a1.72571,1.72571,0,0,0,1.1111-.3387,1.23162,1.23162,0,0,0,.4244-1.0245v-5.133h-1.9194Z" style="fill: #09465c"/>
      <path d="M111.7372,67.65974a1.192,1.192,0,0,1-.4241.9893,1.77339,1.77339,0,0,1-1.1384.3385,1.79317,1.79317,0,0,1-1.2004-.3563,1.21392,1.21392,0,0,1-.415-.9715v-3.7426h-1.8922v3.8943a2.62573,2.62573,0,0,0,.3657,1.3765,2.46955,2.46955,0,0,0,1.1339.9624,4.72487,4.72487,0,0,0,1.9635.3523,4.92681,4.92681,0,0,0,1.8301-.3163,2.81247,2.81247,0,0,0,1.2452-.9182,2.3608,2.3608,0,0,0,.4505-1.4567v-3.8943h-1.9188Z" style="fill: #09465c"/>
      <path d="M11.7298,58.76154h4.1258l-5.0465-12.4081H5.0808L0,58.76154H3.9725l.8694-2.1104h6.0522Zm-5.8139-4.8847,1.1254-2.6382.75-2.0426h.1364l.7503,2.0253,1.1253,2.6555Z" style="fill: #09465c"/>
      <path d="M46.5265,58.76154l-5.0466-12.4081H35.7517l-4.9521,12.094-5.3966-6.8686,5.4555-5.2254H25.6757l-4.7909,4.9192v-4.9192H16.708v12.4081h4.1768v-3.1147l1.6708-1.3445,3.3927,4.4592h8.695l.8694-2.1104h6.0526l.8353,2.1104Zm-9.9394-4.8847,1.125-2.6382.7501-2.0426h.1363l.7504,2.0253,1.1253,2.6555Z" style="fill: #09465c"/>
      <path d="M57.7276,58.09794a5.62411,5.62411,0,0,0,2.6169-2.0256,5.91568,5.91568,0,0,0,.9462-3.4552v-.1193a5.90933,5.90933,0,0,0-.9462-3.4637,5.64373,5.64373,0,0,0-2.6169-2.0168,10.3907,10.3907,0,0,0-3.8532-.6639H47.3788v12.4081h6.4956a10.38473,10.38473,0,0,0,3.8532-.6636m-6.1719-2.4681v-6.1444h2.1654a4.45944,4.45944,0,0,1,1.8754.3234,2.01473,2.01473,0,0,1,.9717.8853,2.8217,2.8217,0,0,1,.2897,1.3102v1.1063a2.83688,2.83688,0,0,1-.2897,1.3023,2.0012,2.0012,0,0,1-.9717.8934,4.453,4.453,0,0,1-1.8754.3235Z" style="fill: #09465c"/>
      <polygon points="74.743 55.63 67.02 55.63 67.02 53.962 73.669 53.962 73.669 51.068 67.02 51.068 67.02 49.485 74.776 49.485 74.776 46.353 62.842 46.353 62.842 58.762 74.743 58.762 74.743 55.63" style="fill: #09465c"/>
      <polygon points="80.385 50.2 80.403 49.809 80.59 49.809 80.692 50.2 83.028 58.762 86.847 58.762 89.115 50.217 89.234 49.809 89.404 49.809 89.422 50.217 89.422 58.762 93.36 58.762 93.36 46.353 87.069 46.353 84.955 53.979 84.852 53.979 82.943 46.353 76.482 46.353 76.482 58.762 80.385 58.762 80.385 50.2" style="fill: #09465c"/>
      <rect x="95.5083" y="46.35344" width="4.1768" height="12.4081" style="fill: #09465c"/>
      <path d="M108.6698,55.88494v-9.5315H104.51v9.2083h-3.4611v3.1998h4.3645a3.68043,3.68043,0,0,0,2.3527-.7149,2.58817,2.58817,0,0,0,.9037-2.1617" style="fill: #09465c"/>
      <path d="M119.598,46.35344h-5.7283l-5.0808,12.4081h3.9725l.8693-2.1104h6.0526l.8353,2.1104h4.1259Zm-4.8932,7.5234,1.1253-2.6382.7501-2.0426h.1363l.7504,2.0253,1.1253,2.6555Z" style="fill: #09465c"/>
      <path d="M16.6476,77.253h.57l.0375.6812h.045a1.03355,1.03355,0,0,1,.4275-.5502,1.25941,1.25941,0,0,1,.6976-.1984,1.20541,1.20541,0,0,1,1.0386.4753,2.28335,2.28335,0,0,1,.3487,1.366v.4043a2.17185,2.17185,0,0,1-.36,1.3663,1.22745,1.22745,0,0,1-1.0199.4527,1.2599,1.2599,0,0,1-.7013-.2019,1.04724,1.04724,0,0,1-.4312-.5465h-.045v1.9236h-.6075Zm2.2762,3.2224a1.15167,1.15167,0,0,0,.2588-.8194v-.8683a1.1651,1.1651,0,0,0-.2588-.8274.93.93,0,0,0-.7087-.2733.86687.86687,0,0,0-.7049.307,1.24775,1.24775,0,0,0-.2551.8235v.801a1.24671,1.24671,0,0,0,.2551.8232.866.866,0,0,0,.7049.307A.92888.92888,0,0,0,18.9238,80.47544Z" style="fill: #09465c"/>
      <path d="M20.9636,80.77114a2.02457,2.02457,0,0,1-.4087-1.3547v-.3968a1.89413,1.89413,0,0,1,.4461-1.3848,1.76094,1.76094,0,0,1,2.3661,0,1.90562,1.90562,0,0,1,.4425,1.3848v.3968a2.00948,2.00948,0,0,1-.4127,1.3584,1.78943,1.78943,0,0,1-2.4333-.0037m1.9647-.303a1.09975,1.09975,0,0,0,.2588-.7747v-.9508a1.12006,1.12006,0,0,0-.2588-.771,1.09472,1.09472,0,0,0-1.4887,0,1.11,1.11,0,0,0-.2625.771v.9508a1.09975,1.09975,0,0,0,.2588.7747,1.13249,1.13249,0,0,0,1.4924,0Z" style="fill: #09465c"/>
      <polygon points="24.357 77.253 24.942 77.253 25.662 80.337 25.707 80.592 25.744 80.592 25.797 80.337 26.517 77.253 27.162 77.253 27.882 80.337 27.927 80.592 27.964 80.592 28.017 80.337 28.736 77.253 29.314 77.253 28.339 81.175 27.589 81.175 26.907 78.256 26.847 77.964 26.817 77.964 26.757 78.256 26.074 81.175 25.332 81.175 24.357 77.253" style="fill: #09465c"/>
      <path d="M30.2817,80.75244a2.07762,2.07762,0,0,1-.4125-1.366v-.3819a1.86664,1.86664,0,0,1,.4499-1.3623,1.59572,1.59572,0,0,1,1.1701-.464,1.5243,1.5243,0,0,1,1.1699.4603,1.76075,1.76075,0,0,1,.4124,1.2314v.4941H30.4917v.3518a1.08614,1.08614,0,0,0,.2662.7673.96509.96509,0,0,0,.7464.288.98505.98505,0,0,0,.6823-.2282.86866.86866,0,0,0,.2851-.6026h.5772a1.251,1.251,0,0,1-.461.9618,1.65909,1.65909,0,0,1-1.0763.3481,1.50392,1.50392,0,0,1-1.2299-.4978m.21-1.8003h1.98v-.1497a1.25278,1.25278,0,0,0-.2551-.8682.93068.93068,0,0,0-.72-.277.90686.90686,0,0,0-.7611.3107,1.31479,1.31479,0,0,0-.2438.8345Z" style="fill: #09465c"/>
      <path d="M34.0688,77.852a.57684.57684,0,0,1,.1649-.4453.6239.6239,0,0,1,.4425-.1537h1.41v.5015H34.6689v3.4211h-.6001Z" style="fill: #09465c"/>
      <path d="M37.0012,80.75244a2.07657,2.07657,0,0,1-.4127-1.366v-.3819a1.86541,1.86541,0,0,1,.4501-1.3623,1.59477,1.59477,0,0,1,1.1699-.464,1.52407,1.52407,0,0,1,1.1698.4603,1.76079,1.76079,0,0,1,.4125,1.2314v.4941H37.211v.3518a1.08654,1.08654,0,0,0,.2661.7673.96539.96539,0,0,0,.7464.288.98437.98437,0,0,0,.6823-.2282.86875.86875,0,0,0,.2852-.6026h.5771a1.251,1.251,0,0,1-.4609.9618,1.65871,1.65871,0,0,1-1.0763.3481,1.50323,1.50323,0,0,1-1.2297-.4978m.2098-1.8003h1.98v-.1497a1.25277,1.25277,0,0,0-.2552-.8682.93.93,0,0,0-.72-.277.9075.9075,0,0,0-.7611.3107,1.31477,1.31477,0,0,0-.2437.8345Z" style="fill: #09465c"/>
      <path d="M40.8668,80.77114a2.28641,2.28641,0,0,1-.3487-1.3623v-.4116a2.15445,2.15445,0,0,1,.3637-1.3663,1.239,1.239,0,0,1,1.0236-.4527,1.25337,1.25337,0,0,1,.705.2021,1.05213,1.05213,0,0,1,.4275.5465h.045v-2.2085h.5998v5.457h-.57l-.0298-.6811h-.045a1.071,1.071,0,0,1-.4275.5502,1.23823,1.23823,0,0,1-.705.2058,1.20133,1.20133,0,0,1-1.0386-.4791m1.9613-.3291a1.26334,1.26334,0,0,0,.2548-.8308v-.8011a1.23926,1.23926,0,0,0-.2548-.8161.8754.8754,0,0,0-.7126-.307.92657.92657,0,0,0-.7013.2696,1.15035,1.15035,0,0,0-.2585.8234v.8686a1.16344,1.16344,0,0,0,.2585.8268.9183.9183,0,0,0,.7013.2733A.87608.87608,0,0,0,42.8281,80.442Z" style="fill: #09465c"/>
      <path d="M47.6201,81.04444a1.06949,1.06949,0,0,1-.4278-.5502h-.0451l-.0371.6814h-.57v-5.4573h.6071v2.2085h.0451a1.04731,1.04731,0,0,1,.4314-.5468,1.26,1.26,0,0,1,.7011-.2018,1.19879,1.19879,0,0,1,1.0349.4714,2.256,2.256,0,0,1,.345,1.3476v.4116a2.2184,2.2184,0,0,1-.3598,1.381,1.34011,1.34011,0,0,1-1.7248.2546m1.1959-.569a1.16287,1.16287,0,0,0,.2588-.8271V78.78a1.14949,1.14949,0,0,0-.2588-.8234.93591.93591,0,0,0-.7087-.2696.86741.86741,0,0,0-.7049.307,1.23614,1.23614,0,0,0-.2552.8161v.8008a1.2587,1.2587,0,0,0,.2552.8308.86652.86652,0,0,0,.7049.307A.92858.92858,0,0,0,48.816,80.47544Z" style="fill: #09465c"/>
      <path d="M50.2897,81.939h1.2898v-1.1529L50.1622,77.253h.6375l.9374,2.545.1199.3517h.0374l.1276-.3517.9524-2.545h.6302l-1.425,3.5331v1.1602a.46121.46121,0,0,1-.1313.3632.519.519,0,0,1-.3563.1159H50.2897Z" style="fill: #09465c"/>
      <path d="M56.2068,75.71834h2.0849a1.59246,1.59246,0,0,1,1.106.3445,1.30742,1.30742,0,0,1,.3787,1.0179,1.46107,1.46107,0,0,1-.2177.8234,1.03918,1.03918,0,0,1-.6596.4343v.0451a1.11193,1.11193,0,0,1,.7274.4079,1.40581,1.40581,0,0,1,.2625.8943,1.37435,1.37435,0,0,1-.4425,1.1268,1.8358,1.8358,0,0,1-1.1999.3631H56.2068Zm.6222.4868v1.9386h1.3651a1.024,1.024,0,0,0,.69-.2132.75255.75255,0,0,0,.2475-.6026v-.3368a.69376.69376,0,0,0-.2588-.5876,1.13737,1.13737,0,0,0-.7087-.1984Zm0,2.4103v2.0735h1.3725a1.09046,1.09046,0,0,0,.7614-.2432.85408.85408,0,0,0,.2662-.6628v-.3217a.75723.75723,0,0,0-.2702-.6324,1.15407,1.15407,0,0,0-.735-.2134Z" style="fill: #09465c"/>
      <polygon points="60.991 75.718 61.621 75.718 61.621 78.129 64.276 78.129 64.276 75.718 64.906 75.718 64.906 81.176 64.276 81.176 64.276 78.675 61.621 78.675 61.621 81.176 60.991 81.176 60.991 75.718" style="fill: #09465c"/>
      <rect x="66.4282" y="75.71834" width="0.6299" height="5.4573" style="fill: #09465c"/>
      <path d="M68.5803,75.71834H70.395a2.14347,2.14347,0,0,1,1.6127.5953,2.5543,2.5543,0,0,1,.5774,1.8377v.5913a3.09123,3.09123,0,0,1-.2702,1.3848,1.73633,1.73633,0,0,1-.7611.7934,2.48614,2.48614,0,0,1-1.1588.2548H68.5803Zm1.7997,4.9108a1.49594,1.49594,0,0,0,1.1511-.4232,1.70832,1.70832,0,0,0,.3941-1.2087v-1.1078a1.78206,1.78206,0,0,0-.3714-1.1792,1.44328,1.44328,0,0,0-1.1738-.4453H69.2101v4.3642Z" style="fill: #09465c"/>
      <path d="M74.7298,75.71834h.8699l1.7326,5.457h-.6376l-.4201-1.3323H74.0475l-.4275,1.3323h-.6225Zm1.4099,3.6307-.6225-1.9914-.3373-1.0927h-.0451l-.3376,1.1004-.6148,1.9837Z" style="fill: #09465c"/>
      <path d="M78.1421,75.71834h1.9423a1.72623,1.72623,0,0,1,1.2711.4306,1.7063,1.7063,0,0,1,.4311,1.2612,1.52895,1.52895,0,0,1-1.7096,1.6993H78.772v2.0659h-.6299Zm.6299.5466v2.3278h1.2449a1.20332,1.20332,0,0,0,.8212-.2543.90768.90768,0,0,0,.2886-.7186v-.3892a.89676.89676,0,0,0-.2886-.7149,1.21437,1.21437,0,0,0-.8212-.2508Z" style="fill: #09465c"/>
      <path d="M83.4891,75.71834h.87l1.7322,5.457h-.6375L85.034,79.843H82.8065l-.4274,1.3323h-.6225Zm1.41,3.6307-.6228-1.9914-.3373-1.0927h-.0451l-.3376,1.1004-.6149,1.9837Z" style="fill: #09465c"/>
      <rect x="86.5114" y="78.74264" width="2.0024" height="0.5165" style="fill: #09465c"/>
      <polygon points="89.706 75.718 92.976 75.718 92.976 76.265 90.336 76.265 90.336 78.121 92.668 78.121 92.668 78.638 90.336 78.638 90.336 80.629 92.983 80.629 92.983 81.176 89.706 81.176 89.706 75.718" style="fill: #09465c"/>
      <path d="M95.203,75.71834h.8699l1.7326,5.457H97.168l-.4201-1.3323H94.5207l-.4275,1.3323h-.6227Zm1.4099,3.6307-.6224-1.9914-.3376-1.0927h-.0448l-.3376,1.1004-.6149,1.9837Z" style="fill: #09465c"/>
      <path d="M98.6151,75.71834h1.9423a1.7272,1.7272,0,0,1,1.2713.4306,1.70753,1.70753,0,0,1,.4311,1.2612,1.529,1.529,0,0,1-1.7098,1.6993H99.2449v2.0659h-.6298Zm.6298.5466v2.3278h1.245a1.2035,1.2035,0,0,0,.8212-.2543.9067.9067,0,0,0,.2886-.7186v-.3892a.8958.8958,0,0,0-.2886-.7149,1.21454,1.21454,0,0,0-.8212-.2508Z" style="fill: #09465c"/>
      <polygon points="104.929 76.265 104.929 81.175 104.3 81.175 104.3 76.265 102.755 76.265 102.755 75.718 106.474 75.718 106.474 76.265 104.929 76.265" style="fill: #09465c"/>
      <rect x="107.3667" y="75.71834" width="0.6302" height="5.4573" style="fill: #09465c"/>
    </g>
  </g>
</svg>
